<?xml version="1.0" encoding="utf-8"?>
<!-- Generator: Adobe Illustrator 27.5.0, SVG Export Plug-In . SVG Version: 6.00 Build 0)  -->
<svg version="1.1" xmlns="http://www.w3.org/2000/svg" xmlns:xlink="http://www.w3.org/1999/xlink" x="0px" y="0px"
	 viewBox="0 0 750 500" style="enable-background:new 0 0 750 500;" xml:space="preserve">
<g id="BACKGROUND">
	<rect style="fill:#FFFFFF;" width="750" height="500"/>
</g>
<g id="OBJECTS">
	<g>
		<g>
			<path style="fill:#FFD300;" d="M519.528,413.207c14.196-2.994,29.546,2.63,39.644,14.527
				c8.461-13.688,22.269-22.791,36.786-24.251c14.517-1.46,29.482,4.75,39.868,16.543c1.499,1.702,3.101,3.626,5.195,3.85
				c2.118,0.226,4.013-1.362,5.796-2.699c11.316-8.482,26.818-8.842,38.42-0.893c11.602,7.949,18.748,23.825,17.71,39.348
				c-51.889-1.226-103.779-2.451-155.668-3.677c-10.894-0.257-21.806-0.519-32.657-1.754c-5.396-0.614-10.778-1.452-16.099-2.662
				c-2.709-0.616-13.493-1.877-14.87-4.715c-1.52-3.133,9.681-15.983,11.964-18.696C502.025,420.516,510.46,415.12,519.528,413.207z
				"/>
			<path style="fill:#FFD300;" d="M38.425,428.622c7.917-6.702,18.797-9.201,29.143-8.446c10.345,0.755,20.256,4.496,29.555,9.093
				c10.416-9.733,20.938-19.546,33.192-26.83c12.254-7.284,26.55-11.936,40.721-10.381c14.171,1.555,28.006,10.147,33.366,23.357
				c12.278-14.331,35.369-16.347,51.735-6.951c16.366,9.396,26.04,28.046,27.858,46.83c-10.798,5.809-23.63,5.979-35.892,6.011
				c-71.547,0.186-143.139,1.141-214.683,0.557c-6.863-0.056-5.75,0.368-5.769-5.019c-0.009-2.536,0.441-6.373,0.689-9.19
				C28.982,440.34,32.849,433.342,38.425,428.622z"/>
			<ellipse cx="382.857" cy="463.339" rx="354.857" ry="16.232"/>
		</g>
		<g>
			<polygon style="fill:#F7931E;" points="466.057,356.75 451.844,342.536 378.905,342.536 367.45,356.75 			"/>
			<polygon style="fill:#F7931E;" points="293.859,356.75 341.387,335.931 430.553,335.931 404.026,356.75 			"/>
			<rect x="293.78" y="356.75" style="fill:#F7931E;" width="172.277" height="98.707"/>
			
				<ellipse transform="matrix(0.9417 -0.3364 0.3364 0.9417 -116.3206 143.6075)" style="fill:#FFFDFE;" cx="356.318" cy="407.527" rx="38.695" ry="38.695"/>
			
				<line style="fill:none;stroke:#000000;stroke-width:0.9378;stroke-linecap:round;stroke-linejoin:round;stroke-miterlimit:10;" x1="466.057" y1="356.75" x2="293.859" y2="356.75"/>
			
				<polyline style="fill:none;stroke:#000000;stroke-width:0.9378;stroke-linecap:round;stroke-linejoin:round;stroke-miterlimit:10;" points="
				404.026,455.075 404.026,356.75 430.553,335.931 			"/>
			<path style="fill:#063965;" d="M345.304,386.34c-4.461,0.427-8.409,3.583-10.376,7.61c-1.968,4.027-2.107,8.786-1.006,13.131
				c1.101,4.344,3.367,8.316,6.019,11.929c4.245,5.783,9.545,10.788,15.561,14.695c8.916-7.612,16.341-16.963,21.734-27.372
				c1.71-3.301,3.256-6.988,2.543-10.637c-0.906-4.64-5.559-8.001-10.283-8.191c-2.328-0.094-4.632,0.49-6.71,1.521
				c-1.831,0.908-3.568,2.943-5.76,2.587c-2.023-0.329-3.451-2.667-5.121-3.699C349.953,386.709,347.594,386.121,345.304,386.34z"/>
		</g>
		<g>
			<g>
				<g>
					<path style="fill:#015A61;" d="M430.616,66.656c-0.885-0.54-15.609-9.227-28.186-2.059c-3.872,2.207-6.378,5.254-7.937,7.707
						c-3.233-1.749-11.383-5.598-22.327-4.885c-11.047,0.72-18.681,5.681-21.647,7.845c-2.31-1.706-5.978-3.942-10.913-5.189
						c-9.421-2.381-17.283,0.405-20.241,1.633c4.271-7.027,8.542-14.054,12.813-21.081l77.793-4.321l17.207,12.613L430.616,66.656z"
						/>
					<path style="fill:#01B4C1;" d="M430.616,66.656c-1.24-1.883-7.423-10.845-19.213-13.156
						c-7.495-1.469-13.605,0.465-16.325,1.522c-1.57-1.369-8.484-7.09-18.879-6.854c-11.007,0.25-17.88,6.996-19.232,8.38
						c-3.022-0.849-10.376-2.468-18.977,0.249c-11.558,3.651-17.225,12.557-18.624,14.91c7.063-26.448,31.005-44.661,57.34-44.246
						C400.588,27.837,422.21,43.466,430.616,66.656z"/>
				</g>
				<g>
					<polyline style="fill:none;stroke:#000000;stroke-linecap:round;stroke-linejoin:round;stroke-miterlimit:10;" points="
						430.616,66.656 371.876,108.697 319.366,71.707 					"/>
					<polyline style="fill:none;stroke:#000000;stroke-linecap:round;stroke-linejoin:round;stroke-miterlimit:10;" points="
						395.078,55.022 371.876,108.697 356.966,56.549 					"/>
					<polyline style="fill:none;stroke:#000000;stroke-linecap:round;stroke-linejoin:round;stroke-miterlimit:10;" points="
						350.52,75.263 371.876,108.697 394.493,72.304 					"/>
				</g>
			</g>
			<g>
				<g>
					<polygon style="fill:#F7931E;" points="414.232,99.085 340.783,113.307 347.931,148.337 424,130.51 					"/>
					<polygon style="fill:#F7931E;" points="386.452,104.464 395.848,137.108 424,130.51 414.232,99.085 					"/>
					
						<line style="fill:none;stroke:#000000;stroke-linecap:round;stroke-linejoin:round;stroke-miterlimit:10;" x1="386.452" y1="104.464" x2="395.848" y2="137.108"/>
				</g>
				<g>
					<path style="fill:#FFFDFE;" d="M354.796,128.153c1.217,7.933,8.634,13.378,16.567,12.161
						c7.933-1.217,13.378-8.634,12.161-16.567c-1.216-7.933-8.634-13.378-16.567-12.161
						C359.025,112.802,353.58,120.22,354.796,128.153z"/>
					<path style="fill:#063965;" d="M363.095,119.99c-2.263,0.496-3.457,3.282-2.858,5.52c0.599,2.238,2.506,3.905,4.555,4.985
						c2.05,1.081,4.308,1.711,6.391,2.726c0.943-2.279,1.887-4.558,2.83-6.836c0.578-1.396,1.164-2.831,1.203-4.341
						c0.039-1.51-0.59-3.134-1.918-3.854c-1.17-0.634-2.708-0.419-3.745,0.415c-0.828,0.666-1.25,2.935-2.377,2.865
						c-0.555-0.035-1.287-0.981-1.837-1.219C364.634,119.945,363.853,119.824,363.095,119.99z"/>
				</g>
			</g>
		</g>
		<g>
			<g>
				<g>
					<path style="fill:#015A61;" d="M632.814,78.887c-0.847-0.598-14.962-10.242-27.987-3.925c-4.01,1.945-6.713,4.819-8.431,7.163
						c-3.11-1.959-10.987-6.342-21.953-6.357c-11.071-0.015-19.016,4.429-22.12,6.391c-2.192-1.855-5.703-4.33-10.544-5.902
						c-9.242-3.001-17.272-0.743-20.305,0.286c4.728-6.728,9.456-13.456,14.184-20.184l77.909,0.852l16.332,13.727L632.814,78.887z"
						/>
					<path style="fill:#01B4C1;" d="M632.814,78.887c-1.112-1.961-6.687-11.314-18.298-14.402
						c-7.381-1.963-13.606-0.439-16.39,0.435c-1.476-1.47-7.995-7.637-18.383-8.091c-10.999-0.481-18.305,5.794-19.746,7.085
						c-2.959-1.048-10.189-3.151-18.952-1.011c-11.774,2.875-18.021,11.386-19.572,13.641c8.802-25.92,33.901-42.505,60.151-40.343
						C605.428,38.16,625.966,55.19,632.814,78.887z"/>
				</g>
				<g>
					<polyline style="fill:none;stroke:#000000;stroke-linecap:round;stroke-linejoin:round;stroke-miterlimit:10;" points="
						632.814,78.887 571.414,116.936 521.474,76.543 					"/>
					<polyline style="fill:none;stroke:#000000;stroke-linecap:round;stroke-linejoin:round;stroke-miterlimit:10;" points="
						598.126,64.92 571.414,116.936 559.997,63.913 					"/>
					<polyline style="fill:none;stroke:#000000;stroke-linecap:round;stroke-linejoin:round;stroke-miterlimit:10;" points="
						552.323,82.158 571.414,116.936 596.396,82.124 					"/>
				</g>
			</g>
			<g>
				<g>
					<polygon style="fill:#F7931E;" points="609.529,123.394 536.942,105.277 528.633,140.05 605.116,156.006 					"/>
					<polygon style="fill:#F7931E;" points="582.075,116.542 576.811,150.101 605.116,156.006 609.529,123.394 					"/>
					
						<line style="fill:none;stroke:#000000;stroke-linecap:round;stroke-linejoin:round;stroke-miterlimit:10;" x1="582.075" y1="116.542" x2="576.811" y2="150.101"/>
				</g>
				<g>
					<path style="fill:#FFFDFE;" d="M541.856,124.853c-1.882,7.802,2.917,15.652,10.719,17.535
						c7.802,1.882,15.652-2.917,17.535-10.719c1.882-7.802-2.917-15.652-10.718-17.535S543.738,117.051,541.856,124.853z"/>
					<path style="fill:#063965;" d="M553.512,119.438c-1.376-0.356-2.93,0.094-3.901,1.131c-1.111,1.187-1.393,2.94-1.284,4.562
						c0.272,4.06,2.587,7.658,4.831,11.053c3.314-2.465,6.628-4.93,9.942-7.394c1.165-0.867,2.411-1.855,2.723-3.273
						c0.302-1.377-0.438-2.862-1.621-3.629c-1.182-0.767-2.717-0.871-4.072-0.481c-1.105,0.318-2.098,0.94-2.963,1.687
						c-0.605,0.522-0.768,1.007-0.963,0.197c-0.186-0.773,0.104-1.403-0.355-2.154C555.343,120.309,554.443,119.68,553.512,119.438z
						"/>
				</g>
			</g>
		</g>
		<g>
			<g>
				<g>
					<path style="fill:#015A61;" d="M245.447,59.562c-0.921-0.477-16.215-8.115-28.261-0.088c-3.709,2.472-5.996,5.686-7.38,8.242
						c-3.348-1.519-11.746-4.791-22.613-3.316c-10.97,1.489-18.239,6.971-21.047,9.336c-2.423-1.54-6.238-3.516-11.248-4.415
						c-9.564-1.717-17.212,1.61-20.078,3.042c3.77-7.308,7.54-14.616,11.311-21.924l77.302-9.738l18.046,11.382L245.447,59.562z"/>
					<path style="fill:#01B4C1;" d="M245.447,59.562c-1.368-1.792-8.162-10.3-20.084-11.783c-7.579-0.943-13.54,1.413-16.179,2.657
						c-1.662-1.256-8.958-6.48-19.311-5.52c-10.962,1.017-17.348,8.226-18.601,9.701c-3.074-0.636-10.523-1.738-18.913,1.572
						c-11.275,4.448-16.307,13.728-17.538,16.173c5.2-26.876,27.813-46.715,54.113-48.139
						C212.783,22.932,235.443,37.014,245.447,59.562z"/>
				</g>
				<g>
					<polyline style="fill:none;stroke:#000000;stroke-linecap:round;stroke-linejoin:round;stroke-miterlimit:10;" points="
						245.447,59.562 189.783,105.598 134.82,72.362 					"/>
					<polyline style="fill:none;stroke:#000000;stroke-linecap:round;stroke-linejoin:round;stroke-miterlimit:10;" points="
						209.183,50.435 189.783,105.598 171.271,54.617 					"/>
					<polyline style="fill:none;stroke:#000000;stroke-linecap:round;stroke-linejoin:round;stroke-miterlimit:10;" points="
						166.146,73.735 189.783,105.598 209.806,67.715 					"/>
				</g>
			</g>
			<g>
				<g>
					<polygon style="fill:#F7931E;" points="156.789,106.679 230.928,96.657 235.362,132.133 157.587,139.578 					"/>
					<polygon style="fill:#F7931E;" points="184.83,102.889 186.37,136.823 157.587,139.578 156.789,106.679 					"/>
					
						<line style="fill:none;stroke:#000000;stroke-linecap:round;stroke-linejoin:round;stroke-miterlimit:10;" x1="184.83" y1="102.889" x2="186.37" y2="136.823"/>
				</g>
				<g>
					<path style="fill:#FFFDFE;" d="M197.779,118.879c0.93,7.972,8.147,13.68,16.118,12.749c7.972-0.93,13.68-8.147,12.749-16.119
						c-0.93-7.972-8.147-13.68-16.118-12.749C202.557,103.69,196.848,110.907,197.779,118.879z"/>
					<path style="fill:#063965;" d="M207.709,108.03c-1.234,0.208-2.284,1.08-2.954,2.137c-1.693,2.671-1.093,6.302,0.627,8.955
						c1.72,2.653,4.366,4.543,6.948,6.369c2.474-2.789,4.565-5.917,6.196-9.269c0.601-1.235,1.148-2.531,1.252-3.9
						c0.105-1.37-0.295-2.841-1.329-3.746c-1.108-0.97-2.793-1.12-4.158-0.566c-1.604,0.651-2.121,2.005-3.21,3.123
						C210.198,109.529,210.406,107.576,207.709,108.03z"/>
				</g>
			</g>
		</g>
		<g>
			<defs>
				<rect id="SVGID_1_" width="750" height="96.099"/>
			</defs>
			<clipPath id="SVGID_00000121277586441519927990000014512752996872450226_">
				<use xlink:href="#SVGID_1_"  style="overflow:visible;"/>
			</clipPath>
			<g style="clip-path:url(#SVGID_00000121277586441519927990000014512752996872450226_);">
				<path style="fill:#FFD300;" d="M70.963,29.328c11.61-4.014,23.262-8.388,33.349-15.4c10.087-7.012,18.59-17.002,21.493-28.939
					C81.842-11.74,37.878-8.469-6.085-5.198c2.033,13.598,3.033,27.35,3,41.098c-0.016,6.874-0.291,13.749-0.825,20.602
					c-0.298,3.834-2.523,11.634-0.281,15.248c4.261,6.869,20.718,1.474,26.934-0.453c9.994-3.099,19.38-8.189,27.444-14.855
					c4.56-3.77,8.707-8.048,12.288-12.761C64.156,41.47,69.033,29.995,70.963,29.328z"/>
				<path style="fill:#FFD300;" d="M660.077,34.764c17.412,7.474,37.036,7.684,55.935,6.315c-0.358,13.736,4.8,27.539,14.078,37.674
					c9.278,10.136,22.571,16.49,36.286,17.346c6.733-35.488,7.961-72.016,3.628-107.876c-0.455-3.761-77.855-2.796-85.396-2.541
					c-14.162,0.478-28.315,1.624-42.324,3.787c-4.872,0.752-13.356,0.243-14.881,5.481c-1.159,3.984,2.944,11.629,4.756,15.012
					C638.134,21.121,648.526,29.806,660.077,34.764z"/>
			</g>
		</g>
	</g>
	<g>
		<g>
			<g>
				<path style="fill:#FFFDFE;" d="M244.546,206.085c8.112,2.415,16.224,4.83,24.336,7.246c-1.597-0.475,3.184-17.191,3.764-18.843
					c2.235-6.358,5.719-11.657,9.035-17.419c-5.943-5.628-16.069,4.037-20.139,7.585
					C254.631,190.678,248.821,197.971,244.546,206.085z"/>
				<path style="fill:none;stroke:#000000;stroke-linecap:round;stroke-linejoin:round;stroke-miterlimit:10;" d="M274.11,175.341
					c-9.124,3.446-16.458,11.315-19.256,20.658"/>
			</g>
			<g>
				<g>
					<path style="fill:#01B4C1;" d="M255.141,440.075c-1.488-1.012-2.855-2.48-4.627-2.598c-2.68-0.177-4.464,2.689-6.029,4.967
						c-3.757,5.469-9.57,9.354-15.898,10.625c-1.343,0.27-2.737,0.437-3.944,1.108c-1.207,0.671-2.202,2.012-2.015,3.427
						c0.159,1.2,1.133,2.143,2.217,2.575c1.084,0.432,2.272,0.448,3.432,0.458c12.988,0.115,25.976,0.231,38.964,0.346
						c1.37,0.012,2.889-0.034,3.881-1.02c0.957-0.952,1.107-2.471,1.135-3.851c0.06-2.939-0.117-16.685-3.909-17.236
						c-1.534-0.223-4.538,2.483-6.453,2.726C259.564,441.896,257.123,441.422,255.141,440.075z"/>
					<g>
						
							<path style="fill:none;stroke:#000000;stroke-width:0.9785;stroke-linecap:round;stroke-linejoin:round;stroke-miterlimit:10;" d="
							M251.282,442.458c0.869,0.198,1.632,1.176,1.298,2.037c-0.316,0.814-1.399,1.011-2.172,0.664
							c-0.773-0.347-1.325-1.06-1.916-1.686c-1.281-1.358-2.872-2.397-4.603-3.005c-0.511-0.18-1.048-0.323-1.585-0.269
							s-1.077,0.341-1.328,0.84c-0.399,0.794,0.097,1.826,0.847,2.261c0.751,0.435,1.659,0.421,2.515,0.344
							c1.281-0.115,2.499-0.416,3.754-0.676C249.111,442.759,250.237,442.22,251.282,442.458z"/>
						
							<path style="fill:none;stroke:#000000;stroke-width:0.9785;stroke-linecap:round;stroke-linejoin:round;stroke-miterlimit:10;" d="
							M246.068,448.187c-2.104-1.025-4.34-1.753-6.628-2.16"/>
						
							<path style="fill:none;stroke:#000000;stroke-width:0.9785;stroke-linecap:round;stroke-linejoin:round;stroke-miterlimit:10;" d="
							M243.47,449.897c-2.322-1.466-5.112-2.108-7.809-1.795"/>
						
							<path style="fill:none;stroke:#000000;stroke-width:0.9785;stroke-linecap:round;stroke-linejoin:round;stroke-miterlimit:10;" d="
							M240.118,450.916c-1.98-0.419-3.961-0.839-5.941-1.258"/>
					</g>
					
						<path style="fill:none;stroke:#000000;stroke-width:0.9785;stroke-linecap:round;stroke-linejoin:round;stroke-miterlimit:10;" d="
						M272.101,457.805c-8.107,1.232-16.347,0.947-24.534,0.659c-8.387-0.295-16.773-0.59-25.16-0.885"/>
				</g>
				<g>
					<polygon points="298.874,288.78 271.219,443.39 246.24,441.544 257.961,286.159 					"/>
					<path style="fill:none;stroke:#FFFFFF;stroke-linecap:round;stroke-linejoin:round;stroke-miterlimit:10;" d="M263.229,359.156
						c1.823,4.83,0.803,10.62-2.561,14.536"/>
				</g>
			</g>
			<g>
				<g>
					<path style="fill:#01B4C1;" d="M322.042,442.354c-1.462-0.952-2.804-2.333-4.545-2.443c-2.632-0.167-4.385,2.528-5.922,4.671
						c-3.691,5.144-9.4,8.797-15.617,9.992c-1.319,0.254-2.688,0.411-3.874,1.042c-1.186,0.631-2.163,1.892-1.979,3.223
						c0.156,1.129,1.113,2.015,2.177,2.422c1.064,0.406,2.232,0.421,3.371,0.431c12.758,0.108,25.516,0.217,38.275,0.325
						c1.346,0.011,2.838-0.032,3.813-0.96c0.94-0.895,1.087-2.324,1.115-3.622c0.059-2.764-0.115-15.692-3.839-16.211
						c-1.507-0.21-4.458,2.335-6.339,2.564C326.387,444.067,323.989,443.621,322.042,442.354z"/>
					
						<path style="fill:none;stroke:#000000;stroke-width:0.9405;stroke-linecap:round;stroke-linejoin:round;stroke-miterlimit:10;" d="
						M338.98,458.25c-16.25,1.514-32.637,1.554-48.894,0.122"/>
					<g>
						
							<path style="fill:none;stroke:#000000;stroke-width:0.9405;stroke-linecap:round;stroke-linejoin:round;stroke-miterlimit:10;" d="
							M317.766,447.014c0.204,0.36,0.223,0.844-0.034,1.168c-0.295,0.372-0.86,0.428-1.306,0.266
							c-0.446-0.163-0.804-0.498-1.158-0.814c-1.923-1.719-4.112-3.14-6.466-4.194c-0.526-0.236-1.076-0.456-1.651-0.467
							c-0.576-0.01-1.19,0.231-1.475,0.732c-0.386,0.677-0.024,1.587,0.605,2.047c0.629,0.459,1.443,0.569,2.221,0.613
							c1.664,0.093,3.231-0.157,4.865-0.387C314.707,445.789,316.976,445.621,317.766,447.014z"/>
						
							<path style="fill:none;stroke:#000000;stroke-width:0.9405;stroke-linecap:round;stroke-linejoin:round;stroke-miterlimit:10;" d="
							M313.293,450.612c-1.781-1.337-4.052-2.006-6.273-1.847"/>
						
							<path style="fill:none;stroke:#000000;stroke-width:0.9405;stroke-linecap:round;stroke-linejoin:round;stroke-miterlimit:10;" d="
							M309.116,452.039c-1.732-1.265-3.92-1.89-6.059-1.733"/>
						
							<path style="fill:none;stroke:#000000;stroke-width:0.9405;stroke-linecap:round;stroke-linejoin:round;stroke-miterlimit:10;" d="
							M305.534,453.014c-1.444-0.693-3.027-1.096-4.626-1.177"/>
					</g>
				</g>
				<g>
					<polygon points="332.66,291.97 337.753,445.323 311.72,442.467 289.492,288.78 					"/>
					<path style="fill:none;stroke:#FFFFFF;stroke-linecap:round;stroke-linejoin:round;stroke-miterlimit:10;" d="M293.609,315.657
						c-1.67-9.722-3.341-19.444-5.011-29.165"/>
					<path style="fill:none;stroke:#FFFFFF;stroke-linecap:round;stroke-linejoin:round;stroke-miterlimit:10;" d="M312.428,357.018
						c3.074,4.803,3.702,11.089,1.638,16.405"/>
				</g>
			</g>
			<g>
				<g>
					<path style="fill:#FFFDFE;" d="M316.674,180.38c1.553,3.676,1.879,7.737,2.134,11.719c2.177,34.03,0.545,68.195-2.18,102.186
						c-12.752-0.798-25.505-1.596-38.257-2.394c-2.364-0.148-4.948-0.389-6.638-2.049c-1.464-1.437-1.895-3.598-2.21-5.624
						c-4.864-31.239,0.935-63.151,8.917-93.742c1.409-5.401,3.076-11.1,7.237-14.821
						C293.902,168.301,312.066,169.477,316.674,180.38z"/>
					<path style="fill:#063965;" d="M281.685,212.777c-3.149-1.072-6.858-0.28-9.294,1.985c-2.583,2.402-3.581,6.05-4.031,9.548
						c-1.567,12.182,2.381,24.966,10.543,34.144c2.493,2.803,5.339,5.267,8.176,7.722c0.384,0.332,0.822,0.684,1.329,0.66
						c0.483-0.023,0.876-0.382,1.22-0.722c5.745-5.675,10.865-11.981,15.238-18.769c2.392-3.711,4.572-7.592,6.012-11.767
						c1.439-4.174,2.117-8.67,1.461-13.036c-0.43-2.86-1.543-5.789-3.854-7.528c-1.762-1.325-4.04-1.811-6.244-1.791
						c-2.02,0.018-4.027,0.464-5.882,1.256c-2.065,0.882-3.425,2.411-5.269,3.555c-1.944,1.205-3.338-0.057-4.633-1.555
						C285.069,214.872,283.762,213.484,281.685,212.777z"/>
					<path style="fill:none;stroke:#000000;stroke-linecap:round;stroke-linejoin:round;stroke-miterlimit:10;" d="M307.053,183.696
						c-1.627,4.89-6.866,8.129-12.017,7.988c-5.151-0.141-9.965-3.329-12.669-7.716"/>
				</g>
				<path style="fill:#01B4C1;" d="M266.701,181.496c-3.816,4.86-5.163,11.037-6.465,17.491c-3.22,15.963-6.44,31.93-9.154,47.987
					c-2.724,16.113-4.936,32.312-6.634,48.565c10.234,3.32,20.979,5.064,31.738,5.149c-1.856-0.015,0.171-55.873,0.512-60.966
					c0.774-11.54,2.31-23.01,3.967-34.451c1.521-10.492,1.702-22.583,7.576-31.751c-5.517-0.958-11.373,0.185-16.124,3.147
					C269.886,178.057,268.123,179.685,266.701,181.496z"/>
				<g>
					<path style="fill:#FFAA73;" d="M308.301,172.271c0.223,2.456,0.522,4.994-0.238,7.34c-0.976,3.013-3.569,5.242-6.354,6.75
						c-2.998,1.623-6.456,2.602-9.828,2.101c-3.372-0.501-6.6-2.68-7.759-5.886c-0.844-2.333-0.55-4.904-0.245-7.365
						c1.29-10.416,2.773-21.337,8.98-29.8c1.595-2.175,3.564-4.2,6.082-5.167c2.518-0.967,5.671-0.648,7.505,1.329
						c3.095,3.338,1.903,9.762,1.639,13.832C307.72,161.021,307.792,166.666,308.301,172.271z"/>
					<path style="fill:#B87B53;" d="M291.86,178.413c-2.099,0.218-4.238-0.835-5.573-2.482c-1.391-1.716-1.975-3.988-1.936-6.196
						c0.054-3.088,1.212-6.395,2.276-9.274c1.6-4.333,4.612-8.197,8.622-10.49c2.259-1.292,5.157-2.179,7.695-1.173
						c6.682,2.648,4.181,12.324,1.809,17.16c-1.913,3.901-4.813,7.27-8.162,10.038c-1.317,1.089-2.778,2.121-4.467,2.383
						C292.036,178.392,291.948,178.403,291.86,178.413z"/>
				</g>
				<path style="fill:#01B4C1;" d="M307.576,171.304c-6.863,21.012-7.463,43.389-6.814,65.414
					c0.649,22.025,2.49,44.124,0.308,66.035c13.245-1.45,26.491-2.9,39.736-4.349c-0.785-31.202-1.988-62.9-5.268-93.985
					c-0.808-7.659-1.851-15.552-5.977-22.253C325.434,175.466,315.737,170.204,307.576,171.304z"/>
				<g>
					<path style="fill:none;stroke:#000000;stroke-linecap:round;stroke-linejoin:round;stroke-miterlimit:10;" d="M308.389,170.732
						c-0.958,5.918-1.948,12.006-3.779,17.725c-1.496,4.669-3.713,9.179-7.036,12.785c-1.225,1.329-2.78,2.601-4.587,2.567
						c-2.1-0.039-3.738-1.815-4.844-3.601c-4.646-7.501-4.393-16.479-4.412-24.959"/>
					<g>
						<path style="fill:#FFD300;" d="M282.571,222.631c0.766-6.817,1.517-13.695,2.283-20.512c4.674,0.254,9.347,0.509,14.021,0.763
							c-0.656,6.935-1.097,14.112-1.754,21.046C292.515,222.484,287.386,222.282,282.571,222.631z"/>
						<path style="fill:#FFFDFE;" d="M287.207,208.517c-0.801,0.435-1.06,1.475-1.009,2.385c0.072,1.276,0.583,2.496,1.276,3.57
							c0.693,1.074,1.564,2.019,2.431,2.959c2.035-1.786,4.146-3.68,5.089-6.219c0.271-0.729,0.438-1.528,0.258-2.285
							c-0.18-0.757-0.775-1.453-1.545-1.561c-0.747-0.105-1.463,0.341-2.01,0.86c-0.451,0.428-0.842,0.921-1.157,1.458
							c-0.182,0.31-0.298,0.745-0.536,0.994c-0.187-0.465-0.088-1.028-0.335-1.49C289.235,208.377,287.997,208.088,287.207,208.517z
							"/>
					</g>
				</g>
			</g>
			<g>
				<path d="M264.488,124.504c-0.617,3.812,0.169,7.835,2.177,11.134c0.43,0.708,1.163,1.473,1.947,1.207
					c0.474-0.161,0.746-0.647,0.973-1.094c2.423-4.755,4.847-9.51,7.27-14.264c0.4-0.785,0.81-1.61,0.8-2.492
					c-0.037-3.142-5.165-4.554-7.678-3.795C266.766,116.172,264.957,121.605,264.488,124.504z"/>
				<path style="fill:#FFAA73;" d="M308.854,157.41c-3.384,6.618-9.625,11.516-16.566,14.175c-2.889,1.107-6.062,1.861-9.068,1.128
					c-2.058-0.501-3.894-1.668-5.557-2.981c-4.831-3.815-8.555-9.113-10.112-15.069c-1.306-4.996-1.081-10.257-0.618-15.401
					c0.507-5.636,1.309-11.326,3.512-16.539s5.959-9.959,11.09-12.345c6.173-2.869,13.813-1.883,19.41,1.992
					c10.458,7.24,12.218,21.957,11.058,33.622C311.61,149.944,310.669,153.861,308.854,157.41z"/>
				<g>
					<g>
						
							<path style="fill:none;stroke:#000000;stroke-width:0.8826;stroke-linecap:round;stroke-linejoin:round;stroke-miterlimit:10;" d="
							M295.822,137.33c-1.118-1.594-2.995-2.629-4.939-2.724c-1.945-0.095-3.913,0.753-5.181,2.231"/>
						<path d="M289.14,141.246c-0.135,0.201-0.309,0.395-0.542,0.459c-0.271,0.074-0.569-0.053-0.756-0.263
							c-0.187-0.21-0.279-0.488-0.325-0.765c-0.131-0.776,0.276-3.066,1.53-2.595C290.188,138.51,289.614,140.545,289.14,141.246z"
							/>
					</g>
					<g>
						
							<path style="fill:none;stroke:#000000;stroke-width:0.8826;stroke-linecap:round;stroke-linejoin:round;stroke-miterlimit:10;" d="
							M278.572,135.885c-0.495-1.469-1.759-2.655-3.257-3.054c-1.498-0.4-3.185-0.002-4.346,1.025"/>
						<path d="M273.739,139.266c-0.115,0.476-0.333,0.983-0.781,1.181c-0.247,0.109-0.561,0.096-0.76-0.087
							c-0.161-0.148-0.22-0.374-0.258-0.589c-0.084-0.469-0.103-0.949-0.056-1.423c0.034-0.346,0.107-0.7,0.3-0.989
							c0.367-0.55,1.198-0.649,1.59-0.058C274.102,137.798,273.865,138.747,273.739,139.266z"/>
					</g>
					
						<path style="fill:none;stroke:#000000;stroke-width:0.8826;stroke-linecap:round;stroke-linejoin:round;stroke-miterlimit:10;" d="
						M280.719,140.06c0.067,2.483-0.846,4.98-2.5,6.834c-0.596,0.668-1.341,1.453-1.098,2.315c0.154,0.546,0.692,0.914,1.246,1.034
						c0.555,0.119,1.13,0.035,1.691-0.049"/>
					<path style="fill:#FFFDFE;" d="M292.405,153.19c-0.408,3.424-2.215,6.734-5.095,8.63c-2.881,1.895-6.835,2.2-9.81,0.456
						c-2.688-1.576-5.015-5.742-3.567-8.84c1.247,0.301,2.327,0.77,3.627,0.84c1.609,0.087,3.218,0.204,4.831,0.195
						c1.687-0.009,3.373-0.12,5.046-0.334C287.94,154.073,292.357,153.581,292.405,153.19z"/>
					<path style="fill:#FF7673;" d="M297.976,149.68c-0.065,1.039-0.889,1.983-1.909,2.187c-1.02,0.204-2.145-0.35-2.604-1.284
						c-0.459-0.934-0.212-2.163,0.573-2.846C295.588,146.385,298.103,147.635,297.976,149.68z"/>
					<path style="fill:#FF7673;" d="M272.275,150.051c-0.065,1.039-0.889,1.983-1.909,2.187c-1.02,0.204-2.144-0.35-2.604-1.284
						c-0.459-0.934-0.212-2.163,0.573-2.846C269.886,146.757,272.402,148.007,272.275,150.051z"/>
				</g>
				<path d="M320.237,132.363c0.964-2.88,0.948-5.946,0.553-8.912c-0.186-1.4-0.436-2.71-1.034-4.005
					c-0.22-0.476-2.277-2.996-2.223-3.224c1.108-4.757-1.385-10.114-5.738-12.33c-3.098-1.577-6.774-1.605-10.198-1.006
					c-5.093,0.89-9.904,2.879-15.084,3.302c-5.124,0.419-10.363-0.293-15.29-1.43c-2.199-0.507-4.657-1.171-6.587-0.001
					c-1.402,0.85-2.142,2.498-2.382,4.12c-0.591,3.987,1.423,8.031,4.401,10.748c2.977,2.717,6.806,4.302,10.642,5.542
					c7.774,2.514,16.124,3.824,24.143,2.26c-0.029,3.371,1.136,6.826,3.551,9.178c2.415,2.352,6.143,3.425,9.32,2.297
					C317.18,137.885,319.27,135.252,320.237,132.363z"/>
				<g>
					<path style="fill:#FFAA73;" d="M312.964,135.879c1.721-0.481,3.668-0.456,5.181,0.493c1.556,0.975,2.436,2.81,2.584,4.641
						c0.148,1.83-0.354,3.658-1.072,5.348c-1.705,4.015-4.679,7.48-8.389,9.775c-1.741,1.077-4.084,1.868-5.739,0.663
						c-1.225-0.892-1.58-2.557-1.646-4.071c-0.162-3.697,1.165-6.844,2.302-10.261C307.227,139.341,309.763,136.773,312.964,135.879
						z"/>
					
						<path style="fill:none;stroke:#000000;stroke-width:0.862;stroke-linecap:round;stroke-linejoin:round;stroke-miterlimit:10;" d="
						M310.137,143.351c-0.028-1.323,1.345-2.413,2.663-2.3c1.318,0.114,2.418,1.22,2.772,2.494c0.354,1.275,0.058,2.662-0.551,3.837
						c-1.171,2.259-3.53,3.858-6.063,4.108"/>
				</g>
			</g>
		</g>
		<g>
			<g>
				<polygon style="fill:#9D5C32;" points="92.653,292.286 119.751,450 135.767,450 134.224,292.286 				"/>
				<g>
					<path style="fill:#063965;" d="M129.358,445.326c1.339-0.204,2.646-0.606,3.862-1.206c0.802-0.396,1.607-0.883,2.501-0.899
						c1.741-0.03,2.683,1.423,3.659,2.596c1.166,1.402,2.524,2.643,4.016,3.691c2.909,2.043,6.34,3.356,9.884,3.694
						c1.603,0.153,3.228,0.118,4.806,0.439c1.577,0.321,3.156,1.063,4.041,2.408c4.043,6.142-8.335,7.123-11.52,7.012
						c-10.83-0.375-21.66-0.751-32.491-1.126c-0.929-0.032-1.943-0.097-2.63-0.724c-0.897-0.818-0.857-2.217-0.749-3.427
						c0.392-4.365,0.176-8.536,1.397-12.817c0.256-0.898,0.668-1.907,1.562-2.176c0.874-0.264,1.753,0.312,2.535,0.784
						C122.94,445.208,126.235,445.803,129.358,445.326z"/>
					<path style="fill:none;stroke:#000000;stroke-linecap:round;stroke-linejoin:round;stroke-miterlimit:10;" d="M114.555,457.035
						c15.897,2.141,32.028,2.543,48.012,1.197"/>
					<path style="fill:none;stroke:#000000;stroke-linecap:round;stroke-linejoin:round;stroke-miterlimit:10;" d="M132.069,444.833
						c1.841,4.148,5.464,7.469,9.756,8.943"/>
				</g>
			</g>
			<g>
				<polygon style="fill:#9D5C32;" points="60.141,292.286 52.427,448.286 68.713,448.286 103.427,292.286 				"/>
				<g>
					<path style="fill:#063965;" d="M66.534,444.77c0.222-0.121,0.438-0.256,0.645-0.406c0.935-0.673,1.749-1.648,2.889-1.815
						c1.131-0.165,2.212,0.544,2.989,1.382c2.107,2.272,3.878,4.648,6.47,6.434c2.582,1.778,5.548,3.005,8.64,3.531
						c1.189,0.203,2.413,0.31,3.526,0.774c1.114,0.464,2.131,1.379,2.324,2.57c0.201,1.233-0.543,2.471-1.558,3.199
						c-1.015,0.728-2.263,1.044-3.485,1.306c-5.61,1.207-11.365,1.617-17.095,1.515c-5.793-0.103-11.387-0.998-17.104-1.856
						c-1.752-0.263-3.504-0.526-5.256-0.789c-0.484-0.073-0.998-0.159-1.36-0.488c-0.548-0.498-0.547-1.347-0.477-2.084
						c0.436-4.59,1.937-9.003,3.426-13.367c0.11-0.323,0.227-0.656,0.461-0.904c0.571-0.603,1.554-0.458,2.353-0.232
						c2.215,0.628,4.358,1.532,6.625,1.932C62.564,445.83,64.759,445.739,66.534,444.77z"/>
					<path style="fill:none;stroke:#000000;stroke-linecap:round;stroke-linejoin:round;stroke-miterlimit:10;" d="M47.712,455.355
						c6.253,2.446,13.146,2.515,19.861,2.551c8.511,0.046,17.188,0.068,25.294-2.526"/>
					<path style="fill:none;stroke:#000000;stroke-linecap:round;stroke-linejoin:round;stroke-miterlimit:10;" d="M65.937,445.001
						c1.324,2.789,3.743,5.04,6.619,6.161"/>
				</g>
			</g>
			<path style="fill:#063965;" d="M140.382,212.483c3.573,7.991,6.158,16.381,8.734,24.747c1.674,5.436,3.348,10.873,5.021,16.309
				c0.468,1.52,0.934,3.176,0.373,4.664c-0.887,2.353-3.784,3.101-6.264,3.522c-2.369,0.402-4.918,0.781-7.081-0.265
				c-2.263-1.094-3.557-3.482-4.661-5.74c-9.105-18.626-15.329-38.656-18.384-59.161c-0.414-2.779-0.866-7.524,2.471-8.815
				c2.738-1.059,5.613,1.78,7.224,3.626C133.103,197.424,137.121,205.188,140.382,212.483z"/>
			<g>
				<path style="fill:#063965;" d="M136.943,307.683c-0.313-2.721-0.651-5.475-1.153-8.184l0,0c0,0,0,0,0,0
					c-0.178-0.957-0.377-1.909-0.602-2.851c-3.685-18.499-2.587-41.138-2-59.657c0.28-8.825,1.055-17.845-0.789-26.56
					c-0.853-4.034-2.589-7.755-3.765-11.647c-1.238-4.098-2.963-8.011-5.873-11.213c-4.721-5.195-11.684-7.733-18.531-9.274
					c-7.155-1.611-14.884-2.25-22.021-0.205c-3.649,1.046-8.623,2.339-11.326,5.202c-5.584,5.912-7.565,16.739-8.236,24.519
					c-0.851,9.874,0.372,19.774,0.955,29.626c1.112,18.78-0.155,37.699-3.754,56.164c-1.607,4.74-1.922,10.038-2.644,14.931
					c-1.83,12.403-3.66,24.807-5.49,37.21c-2.062,13.975-4.125,27.951-6.187,41.926c32.122,4.032,64.942,7.868,96.526,0.76
					C141.571,363.258,139.817,332.694,136.943,307.683z"/>
				<path style="fill:none;stroke:#000000;stroke-linecap:round;stroke-linejoin:round;stroke-miterlimit:10;" d="M48.14,380.156
					c30.493,6.453,62.17,7.271,92.956,2.4"/>
				<path style="fill:none;stroke:#000000;stroke-linecap:round;stroke-linejoin:round;stroke-miterlimit:10;" d="M123.225,187.8
					c9.148,16.449,12.598,35.999,9.63,54.586"/>
			</g>
			<g>
				<path d="M132.163,146.785c0.358,8.721-0.753,17.436-2.185,26.045c-0.342,2.055-0.514,4.164-1.565,5.939
					c-1.132,1.911-2.518,3.816-4.183,5.295c-1.838,1.633-4.263,2.766-6.709,2.517c-1.818-0.186-3.465-1.098-5.161-1.778
					c-4.075-1.633-8.557-1.95-12.736-3.295c-3.906-1.257-7.498-3.445-10.45-6.29c-1.506-1.452-2.863-3.078-3.985-4.845
					c-1.153-1.816-1.481-4.06-1.926-6.161c-1.741-8.225-1.732-16.955,1.066-24.884c2.797-7.928,8.567-14.97,16.26-18.362
					c7.31-3.223,17.207-2.652,24.135,1.533c3.012,1.819,4.015,5.608,4.963,8.78C131.19,136.308,131.948,141.546,132.163,146.785z"/>
				<g>
					<path style="fill:#9D5C32;" d="M89.553,171.866c1.287,3.722,3.383,7.167,6.13,9.992c4.249,4.369,10.025,7.222,16.076,7.942
						c1.075,0.128,2.457,0.008,2.819-1.012c0.181-0.51,0.02-1.07-0.141-1.586c-1.329-4.261-2.944-8.319-2.944-12.816
						c-0.071-3.259-0.597-6.619-1.103-9.835c-0.995-6.323-2.76-12.643-6.344-18.02c-1.496-2.245-3.372-4.356-5.844-5.435
						c-2.472-1.079-5.636-0.902-7.557,0.991c-3.242,3.195-2.34,9.666-2.259,13.745c0.097,4.863-0.653,9.667,0.662,14.414
						C89.2,170.79,89.368,171.331,89.553,171.866z"/>
					<path style="fill:#4F2E19;" d="M109.823,181.515c-2.058,1.53-5.018,1.379-7.293,0.195c-2.274-1.185-3.972-3.233-5.405-5.359
						c-2.982-4.427-5.083-9.409-6.528-14.548c-0.511-1.816-0.916-3.869,0.024-5.505c0.693-1.206,2.035-1.95,3.412-2.145
						c1.377-0.194,2.785,0.107,4.081,0.612c3.853,1.499,6.828,4.735,8.822,8.357c1.843,3.348,3.068,7.11,3.979,10.812
						C111.572,176.603,112.467,179.548,109.823,181.515z"/>
				</g>
				<g>
					<path style="fill:#9D5C32;" d="M96.482,116.825c3.135-1.149,6.555-1.291,9.885-1.052c5.848,0.42,11.905,2.156,15.957,6.394
						c5.022,5.253,6.772,13.479,6.963,20.486c0.222,8.119-1.309,16.254-4.193,23.834c-0.845,2.22-1.816,4.419-3.247,6.314
						c-2.954,3.914-7.086,4.849-11.799,4.128c-5.837-0.893-11.048-4.4-14.904-8.872c-3.855-4.472-6.481-9.869-8.659-15.357
						c-2.187-5.511-4.042-11.565-3.167-17.555c0.679-4.647,3.147-10.054,6.299-13.564C91.497,119.487,93.831,117.796,96.482,116.825
						z"/>
					<path d="M85.894,144.245c1.56-0.059,2.917-1.06,4.057-2.125c3.922-3.665,6.589-8.649,7.461-13.945
						c7.873,4.558,17.778,5.437,26.33,2.337c1.276-0.463,2.646-1.133,3.121-2.403c0.476-1.271-0.122-2.687-0.861-3.825
						c-1.811-2.786-4.509-4.909-7.433-6.489c-5.352-2.892-11.666-4.076-17.652-2.994c-5.986,1.081-11.579,4.49-15.024,9.502
						c-1.728,2.514-2.88,5.418-3.373,8.427c-0.508,3.102,0.128,5.871,0.358,8.916C82.995,143.177,84.335,144.304,85.894,144.245z"/>
					<g>
						<g>
							<path style="fill:none;stroke:#000000;stroke-linecap:round;stroke-linejoin:round;stroke-miterlimit:10;" d="
								M111.742,141.627c-1.564-1.691-3.909-2.628-6.207-2.479c-2.298,0.149-4.504,1.38-5.837,3.258"/>
							<path d="M109.02,146.824c-0.032,0.242-0.085,0.487-0.211,0.697c-0.126,0.209-0.336,0.38-0.579,0.407
								c-0.444,0.049-0.797-0.366-0.99-0.768c-0.323-0.671-0.455-1.432-0.379-2.172c0.08-0.77,0.773-1.907,1.546-1.064
								C109.037,144.611,109.133,145.955,109.02,146.824z"/>
						</g>
						<g>
							<path d="M126.993,146.824c-0.032,0.242-0.085,0.487-0.211,0.697c-0.126,0.209-0.336,0.38-0.579,0.407
								c-0.444,0.049-0.797-0.366-0.99-0.768c-0.323-0.671-0.455-1.432-0.379-2.172c0.08-0.77,0.773-1.907,1.546-1.064
								C127.011,144.611,127.107,145.955,126.993,146.824z"/>
							<path style="fill:none;stroke:#000000;stroke-linecap:round;stroke-linejoin:round;stroke-miterlimit:10;" d="
								M127.432,139.714c-1.373-0.821-3.103-1.017-4.624-0.524c-1.521,0.493-2.808,1.665-3.439,3.135"/>
						</g>
						<path style="fill:none;stroke:#000000;stroke-linecap:round;stroke-linejoin:round;stroke-miterlimit:10;" d="
							M116.235,145.822c0.019,2.367,1.223,4.695,3.143,6.079c0.698,0.503,1.554,0.985,1.727,1.829
							c0.177,0.863-0.509,1.713-1.33,2.032c-0.821,0.319-1.735,0.238-2.611,0.153"/>
						<path style="fill:#FFFDFE;" d="M109.094,159.9c4.067,1.775,8.863,1.803,12.951,0.078c-0.118,2.373-1.481,4.628-3.491,5.894
							c-2.01,1.266-4.73,1.381-6.772,0.168C109.739,164.826,108.616,162.227,109.094,159.9z"/>
						<path style="fill:#9D3132;" d="M98.939,158.319c0,1.873,1.518,3.391,3.391,3.391c1.872,0,3.391-1.518,3.391-3.391
							c0-1.873-1.518-3.391-3.391-3.391C100.457,154.929,98.939,156.447,98.939,158.319z"/>
						<path style="fill:#9D3132;" d="M122.533,158.319c0,1.873,1.518,3.391,3.391,3.391c1.873,0,3.391-1.518,3.391-3.391
							c0-1.873-1.518-3.391-3.391-3.391C124.051,154.929,122.533,156.447,122.533,158.319z"/>
					</g>
				</g>
				<g>
					<path style="fill:#063965;" d="M123.331,113.938c-0.905-0.58-1.846-1.108-2.801-1.597c-5.422-2.778-11.492-4.416-17.581-4.233
						c-4.868,0.146-9.74,1.492-13.887,4.069c-3.977,2.471-8.121,5.282-11.181,8.867c-1.204,1.411-2.195,2.982-3.036,4.651
						l-0.059-0.13c-2.791,5.135-3.978,11.163-3.816,17.043c0.053,1.951,0.252,3.892,0.559,5.817
						c0.329,3.768,0.958,7.415,1.76,10.675c0.927,3.767,2.212,7.455,2.801,11.29c0.59,3.834,0.429,7.929-1.401,11.35
						c4.653-0.885,9.195,0.639,13.716,2.498c3.505,2.437,7.637,3.987,11.84,4.247c2.169,0.413,4.35,0.499,6.555,0.02
						c-8.735-5.442-11.764-20.993-12.244-30.488c-0.343-6.779,0.722-14.021,5.08-19.225c3.939-4.703,10.267-7.136,16.393-6.815
						c6.126,0.321,11.979,3.237,16.337,7.556c0.59-6.657-0.14-16.96-4.85-22.137C126.295,116.05,124.864,114.92,123.331,113.938z"/>
					<path style="fill:none;stroke:#000000;stroke-linecap:round;stroke-linejoin:round;stroke-miterlimit:10;" d="M129.111,207.258
						c-24.336-5.771-41.439-28.926-39.819-53.893c0.286-4.409,1.174-8.861,3.349-12.707c2.189-3.872,5.616-6.971,9.517-9.108
						c4.824-2.643,10.451-3.859,15.917-3.249c5.467,0.611,10.74,3.079,14.574,7.024"/>
				</g>
				<path d="M110.74,191.155c-0.706,3.902-1.697,7.497-1.266,11.555c0.412,3.876,1.979,7.757,4.946,10.285
					c2.967,2.528,7.461,3.418,10.888,1.562c2.92-1.581,4.637-4.844,5.112-8.13c0.475-3.286-0.127-6.628-0.866-9.866
					c-0.886-3.884-1.938-7.889-1.345-11.832c0.698-4.647,1.397-9.293,2.096-13.94c0.102-0.677,0.202-1.382-0.005-2.035
					c-0.206-0.653-0.818-1.232-1.499-1.162c-0.635,0.065-1.082,0.632-1.452,1.152c-1.056,1.483-2.113,2.966-3.169,4.45
					c-0.458,0.644-0.908,1.217-1.445,1.773c-0.227,0.235-1.485,1.147-1.485,1.418c-2.595,2.161-6.567,2.481-9.474,0.763
					c0.138,4.461-0.171,8.936-0.918,13.337C110.819,190.71,110.78,190.933,110.74,191.155z"/>
			</g>
		</g>
		<g>
			<g>
				<polygon style="fill:#F7931E;" points="139.727,191.916 150.39,181.375 211.799,183.908 214.62,200.016 183.597,197.724 				"/>
				<g>
					<polygon style="fill:#F7931E;" points="183.597,197.724 180.254,277.861 270.338,276.616 270.565,198.707 					"/>
					<polygon style="fill:#F7931E;" points="183.597,197.724 139.727,191.916 134.374,264.356 180.254,277.861 					"/>
				</g>
				<polygon style="fill:#F7931E;" points="183.597,197.724 166.114,179.887 249.129,180.912 270.565,198.707 				"/>
				<polyline style="fill:none;stroke:#000000;stroke-linecap:round;stroke-linejoin:round;stroke-miterlimit:10;" points="
					270.565,198.707 183.597,197.724 139.727,191.916 179.75,193.799 				"/>
				<polyline style="fill:none;stroke:#000000;stroke-linecap:round;stroke-linejoin:round;stroke-miterlimit:10;" points="
					167.573,181.375 183.597,197.724 180.254,277.861 				"/>
				<polyline style="fill:none;stroke:#000000;stroke-linecap:round;stroke-linejoin:round;stroke-miterlimit:10;" points="
					167.573,181.375 183.597,197.724 180.254,277.861 				"/>
			</g>
			<g>
				
					<ellipse transform="matrix(0.825 -0.5652 0.5652 0.825 -94.4434 169.3036)" style="fill:#FFFDFE;" cx="226.111" cy="237.126" rx="29.757" ry="29.757"/>
				<g>
					<polygon style="fill:#063965;" points="221.705,214.495 218.296,260.441 232.583,261.09 235.667,215.47 					"/>
					<polygon style="fill:#063965;" points="250.264,232.45 204.309,229.172 203.701,243.46 249.329,246.415 					"/>
				</g>
			</g>
		</g>
		<g>
			<g>
				<path style="fill:#9D5C32;" d="M151.746,236.828c0.697-0.502,1.417-1.014,2.25-1.224c0.833-0.21,1.818-0.05,2.363,0.614
					c0.488,0.595,0.521,1.436,0.457,2.203c-0.212,2.566-1.262,5.057-2.952,7c3.071-0.45,6.196-0.769,9.272-0.355
					c3.076,0.414,6.127,1.622,8.285,3.852c1.305,1.35,2.277,3.178,2.067,5.044c-0.259,2.304-2.202,4.045-4.198,5.226
					c-6.577,3.891-14.656,4.066-22.286,3.643c-2.935-0.163-5.932-0.414-8.621-1.602c-2.689-1.188-5.054-3.49-5.556-6.387
					c-0.776-4.477,2.882-7.298,6.32-9.224C143.586,243.132,147.62,239.796,151.746,236.828z"/>
				<path style="fill:none;stroke:#000000;stroke-linecap:round;stroke-linejoin:round;stroke-miterlimit:10;" d="M167.087,246.392
					c-3.419,0.831-6.898,1.41-10.402,1.731"/>
				<path style="fill:none;stroke:#000000;stroke-linecap:round;stroke-linejoin:round;stroke-miterlimit:10;" d="M171.802,250.13
					c-3.711,1.159-7.594,1.768-11.482,1.8"/>
				<path style="fill:none;stroke:#000000;stroke-linecap:round;stroke-linejoin:round;stroke-miterlimit:10;" d="M172.877,254.19
					c-3.828,1.726-7.955,2.786-12.141,3.119"/>
			</g>
			<g>
				<path style="fill:#063965;" d="M138.931,264.423c0.004-7.337-0.414-14.675-1.252-21.964c-1.444-0.102-2.878-0.269-4.306-0.468
					c-0.585-0.222-1.185-0.412-1.772-0.584c-7.053-2.059-14.072-3.58-20.531-7.203c-0.529-0.297-1.052-0.603-1.57-0.919l0.181,0.226
					c-5.049-3.162-9.609-7.128-13.452-11.879c-5.733-7.087-9.611-15.619-11.461-24.544c-0.58-2.799-0.731-5.648-1.923-8.295
					c-2.209-4.901-8.912-7.744-13.591-4.309c-4.903,3.6-6.684,11.029-7.232,16.698c-1.074,11.124,1.305,22.557,6.727,32.33
					c5.421,9.773,13.862,17.843,23.869,22.82c12.809,6.371,27.459,7.552,41.799,8.095l0.27,0.337
					C136.1,264.65,137.516,264.537,138.931,264.423z"/>
				<path style="fill:none;stroke:#000000;stroke-linecap:round;stroke-linejoin:round;stroke-miterlimit:10;" d="M61.726,209.566
					c-0.012,14.326,6.562,28.525,17.493,37.785c8.024,6.797,18.057,10.883,28.309,13.224c10.252,2.341,20.798,3.033,31.292,3.717"/>
				<path style="fill:none;stroke:#000000;stroke-linecap:round;stroke-linejoin:round;stroke-miterlimit:10;" d="M82.138,189.248
					c1.175,13.878,7.521,27.258,17.523,36.949s23.576,15.611,37.484,16.347"/>
				<path style="fill:none;stroke:#000000;stroke-linecap:round;stroke-linejoin:round;stroke-miterlimit:10;" d="M89.928,240.687
					c4.187,0.004,8.295,2.358,10.417,5.967"/>
				<path style="fill:none;stroke:#000000;stroke-linecap:round;stroke-linejoin:round;stroke-miterlimit:10;" d="M133.154,241.856
					c0.838,7.313,0.727,14.733-0.328,22.017"/>
			</g>
		</g>
		<g>
			<g>
				<path style="fill:#FFAA73;" d="M249.335,229.913c-0.659-0.552-1.338-1.116-2.154-1.387c-0.815-0.271-1.81-0.184-2.402,0.438
					c-0.531,0.557-0.625,1.394-0.618,2.163c0.022,2.575,0.886,5.136,2.428,7.198c-3.029-0.675-6.123-1.223-9.221-1.037
					c-3.098,0.186-6.23,1.166-8.546,3.231c-1.401,1.25-2.505,3.001-2.433,4.878c0.089,2.317,1.898,4.197,3.801,5.521
					c6.272,4.365,14.316,5.135,21.956,5.275c2.939,0.054,5.946,0.024,8.715-0.962c2.769-0.986,5.297-3.109,6.011-5.96
					c1.104-4.407-2.336-7.491-5.623-9.664C257.008,236.801,253.231,233.177,249.335,229.913z"/>
				<path style="fill:none;stroke:#000000;stroke-linecap:round;stroke-linejoin:round;stroke-miterlimit:10;" d="M233.331,238.32
					c3.348,1.08,6.776,1.914,10.246,2.493"/>
				<path style="fill:none;stroke:#000000;stroke-linecap:round;stroke-linejoin:round;stroke-miterlimit:10;" d="M228.353,241.7
					c3.616,1.43,7.443,2.323,11.318,2.641"/>
				<path style="fill:none;stroke:#000000;stroke-linecap:round;stroke-linejoin:round;stroke-miterlimit:10;" d="M226.982,245.67
					c3.69,2.004,7.728,3.365,11.878,4.005"/>
			</g>
			<g>
				<path style="fill:#FFAA73;" d="M340.418,201.393c0.059,1.565,0.019,3.134-0.114,4.691c-0.767,8.944-4.27,17.108-9.57,24.236
					c-6.029,8.106-13.729,15.147-22.927,19.326c-14.919,6.777-32.091,5.482-48.415,4.052c-2.173-0.19-4.401-0.395-6.368-1.338
					c-1.967-0.943-3.649-2.798-3.745-4.978c-0.089-2.022,1.207-3.909,2.877-5.053c1.67-1.145,3.674-1.676,5.645-2.14
					c11.79-2.776,24.026-3.883,35.386-8.088c11.359-4.205,22.173-12.351,25.46-24.009c1.057-3.751,1.278-7.659,1.495-11.53
					c0.194-3.472-0.076-7.413,0.827-10.776c0.617-2.295,2.084-4.489,4.29-5.373c2.122-0.851,4.618-0.348,6.542,0.887
					c1.924,1.235,3.347,3.117,4.489,5.098C338.909,190.935,340.22,196.142,340.418,201.393z"/>
				<path style="fill:none;stroke:#000000;stroke-linecap:round;stroke-linejoin:round;stroke-miterlimit:10;" d="M310.347,239.244
					c-3.186,0.405-6.218,1.933-8.44,4.253c-0.347,0.363-0.646,1.025-0.217,1.287"/>
			</g>
			<g>
				<path style="fill:#FFFDFE;" d="M338.882,189.38c-2.888-5.853-7.835-10.665-13.766-13.388c-0.876-0.402-1.913-0.757-2.77-0.317
					c-0.88,0.452-1.184,1.541-1.366,2.513c-0.644,3.437-0.901,7.008-1.181,10.474c-0.573,7.099-1.145,14.198-1.718,21.297
					c6.813,2.858,13.801,5.297,20.913,7.297c1.787-4.064,2.698-8.495,2.736-12.933C342.116,199.205,341.153,193.984,338.882,189.38z
					"/>
				<path style="fill:none;stroke:#000000;stroke-linecap:round;stroke-linejoin:round;stroke-miterlimit:10;" d="M340.637,213.484
					c-7.487-3.059-14.973-6.117-22.459-9.176"/>
				<path style="fill:none;stroke:#000000;stroke-linecap:round;stroke-linejoin:round;stroke-miterlimit:10;" d="M322.79,175.266
					c3.396,0.723,6.819,1.455,9.999,2.849c3.18,1.394,6.139,3.516,7.947,6.48c1.811,2.969,2.337,6.536,2.563,10.006
					c0.508,7.811-0.42,16.008-4.584,22.637"/>
			</g>
		</g>
	</g>
	<g>
		<path style="fill:#9D5C32;" d="M621.743,212.483c-3.573,7.991-6.158,16.381-8.734,24.747c-1.674,5.436-3.348,10.873-5.021,16.309
			c-0.468,1.52-0.934,3.176-0.373,4.664c0.887,2.353,3.784,3.101,6.264,3.522c2.369,0.402,4.918,0.781,7.081-0.265
			c2.263-1.094,3.557-3.482,4.661-5.74c9.105-18.626,15.329-38.656,18.384-59.161c0.414-2.779,0.866-7.524-2.471-8.815
			c-2.738-1.059-5.613,1.78-7.224,3.626C629.022,197.424,625.005,205.188,621.743,212.483z"/>
		<g>
			<g>
				<g>
					<polygon style="fill:#FFAA73;" points="460.894,292.286 477.218,450 493.234,450 496.465,292.286 					"/>
					<path style="fill:none;stroke:#000000;stroke-linecap:round;stroke-linejoin:round;stroke-miterlimit:10;" d="M485.111,345.957
						c-0.72,0.733-1.094,1.738-1.318,2.74c-0.654,2.921-0.156,6.084,1.364,8.662"/>
				</g>
				<g>
					<polygon points="459.285,289.737 460.894,337.286 498.465,337.286 498.465,292.286 					"/>
					<path style="fill:none;stroke:#FFFFFF;stroke-linecap:round;stroke-linejoin:round;stroke-miterlimit:10;" d="M461.714,332.467
						c12.095,0.262,24.189,0.524,36.284,0.786"/>
				</g>
				<g>
					<path style="fill:#01B4C1;" d="M488.85,445.612c1.554-1.012,2.982-2.48,4.832-2.598c2.799-0.177,4.662,2.688,6.297,4.967
						c3.924,5.469,9.995,9.354,16.605,10.625c1.402,0.27,2.859,0.437,4.119,1.108s2.3,2.012,2.104,3.427
						c-0.166,1.2-1.183,2.143-2.315,2.575c-1.132,0.432-2.373,0.448-3.585,0.458c-13.565,0.115-27.131,0.231-40.696,0.346
						c-1.431,0.012-3.018-0.034-4.054-1.02c-1-0.951-1.156-2.471-1.185-3.851c-0.063-2.939,0.123-16.685,4.082-17.236
						c1.603-0.223,4.74,2.483,6.74,2.726C484.23,447.433,486.781,446.959,488.85,445.612z"/>
					<g>
						<path style="fill:none;stroke:#000000;stroke-linecap:round;stroke-linejoin:round;stroke-miterlimit:10;" d="
							M492.881,447.995c-0.908,0.198-1.704,1.176-1.355,2.037c0.33,0.814,1.461,1.011,2.269,0.664
							c0.807-0.347,1.384-1.06,2.001-1.686c1.338-1.358,2.999-2.397,4.807-3.005c0.534-0.18,1.095-0.323,1.655-0.268
							c0.561,0.055,1.125,0.341,1.387,0.84c0.417,0.794-0.101,1.826-0.885,2.261c-0.784,0.435-1.733,0.421-2.627,0.344
							c-1.337-0.115-2.61-0.416-3.921-0.676C495.148,448.296,493.972,447.756,492.881,447.995z"/>
						<path style="fill:none;stroke:#000000;stroke-linecap:round;stroke-linejoin:round;stroke-miterlimit:10;" d="
							M498.327,453.723c2.197-1.024,4.533-1.753,6.923-2.16"/>
						<path style="fill:none;stroke:#000000;stroke-linecap:round;stroke-linejoin:round;stroke-miterlimit:10;" d="M501.04,455.434
							c2.425-1.466,5.339-2.108,8.156-1.795"/>
						<path style="fill:none;stroke:#000000;stroke-linecap:round;stroke-linejoin:round;stroke-miterlimit:10;" d="
							M504.542,456.453c2.068-0.42,4.137-0.839,6.205-1.258"/>
					</g>
					<path style="fill:none;stroke:#000000;stroke-linecap:round;stroke-linejoin:round;stroke-miterlimit:10;" d="M471.136,463.341
						c8.467,1.232,17.073,0.947,25.625,0.659c8.76-0.295,17.519-0.59,26.278-0.885"/>
				</g>
			</g>
			<g>
				<g>
					<polygon style="fill:#FFAA73;" points="417.608,292.286 409.894,448.286 426.18,448.286 457.972,292.286 					"/>
					<path style="fill:none;stroke:#000000;stroke-linecap:round;stroke-linejoin:round;stroke-miterlimit:10;" d="M434.813,349.235
						c-2.705,2.38-3.633,6.566-2.189,9.867"/>
				</g>
				<g>
					<polygon points="416.465,289.737 414.18,335 453.037,337.286 463.221,289.737 					"/>
					<path style="fill:none;stroke:#FFFFFF;stroke-linecap:round;stroke-linejoin:round;stroke-miterlimit:10;" d="M415.875,302.508
						c1.721,0.478,3.631,0.224,5.168-0.685c1.537-0.909,2.679-2.462,3.089-4.2"/>
					<path style="fill:none;stroke:#FFFFFF;stroke-linecap:round;stroke-linejoin:round;stroke-miterlimit:10;" d="M460.034,305.626
						c1.465-4.195,3.057-8.346,4.774-12.444"/>
					<path style="fill:none;stroke:#FFFFFF;stroke-linecap:round;stroke-linejoin:round;stroke-miterlimit:10;" d="M413.865,330.994
						c13.241,0.651,26.482,1.303,39.724,1.954"/>
				</g>
				<g>
					<path style="fill:#01B4C1;" d="M422.991,445.612c1.554-1.012,2.982-2.48,4.832-2.598c2.799-0.177,4.662,2.688,6.297,4.967
						c3.924,5.469,9.995,9.354,16.605,10.625c1.402,0.27,2.859,0.437,4.119,1.108c1.26,0.671,2.3,2.012,2.104,3.427
						c-0.166,1.2-1.184,2.143-2.315,2.575c-1.132,0.432-2.373,0.448-3.585,0.458c-13.565,0.115-27.131,0.231-40.696,0.346
						c-1.431,0.012-3.018-0.034-4.054-1.02c-1-0.951-1.156-2.471-1.186-3.851c-0.063-2.939,0.123-16.685,4.082-17.236
						c1.602-0.223,4.74,2.483,6.74,2.726C418.371,447.433,420.921,446.959,422.991,445.612z"/>
					<path style="fill:none;stroke:#000000;stroke-linecap:round;stroke-linejoin:round;stroke-miterlimit:10;" d="M404.982,462.514
						c17.278,1.609,34.702,1.653,51.988,0.129"/>
					<g>
						<path style="fill:none;stroke:#000000;stroke-linecap:round;stroke-linejoin:round;stroke-miterlimit:10;" d="
							M427.538,450.567c-0.217,0.382-0.237,0.898,0.036,1.242c0.314,0.396,0.914,0.456,1.389,0.282
							c0.474-0.173,0.854-0.529,1.231-0.866c2.044-1.828,4.372-3.338,6.875-4.46c0.559-0.25,1.143-0.485,1.756-0.496
							c0.612-0.011,1.265,0.246,1.568,0.778c0.41,0.72,0.026,1.688-0.643,2.176c-0.669,0.488-1.534,0.605-2.361,0.652
							c-1.77,0.099-3.435-0.167-5.173-0.411C430.79,449.264,428.378,449.086,427.538,450.567z"/>
						<path style="fill:none;stroke:#000000;stroke-linecap:round;stroke-linejoin:round;stroke-miterlimit:10;" d="
							M432.293,454.392c1.893-1.422,4.308-2.133,6.67-1.964"/>
						<path style="fill:none;stroke:#000000;stroke-linecap:round;stroke-linejoin:round;stroke-miterlimit:10;" d="M436.736,455.91
							c1.842-1.345,4.168-2.01,6.442-1.842"/>
						<path style="fill:none;stroke:#000000;stroke-linecap:round;stroke-linejoin:round;stroke-miterlimit:10;" d="
							M440.543,456.947c1.535-0.737,3.218-1.165,4.919-1.252"/>
					</g>
				</g>
			</g>
			<path d="M474.954,138.099c-1.598-4.35-5.064-8.149-9.52-9.421c-4.456-1.272-9.793,0.413-12.143,4.407
				c-1.563,2.656-1.701,5.884-2.532,8.852c-1.177,4.204-3.475,7.197-6.422,9.415c-0.3,0.154-0.6,0.309-0.9,0.462
				c-2.697,1.376-5.415,2.761-8.251,3.799l0.195,0.051c-1.159,0.36-2.34,0.684-3.535,0.977c-4.288,1.049-9.2,1.239-12.245,4.435
				c-3.221,3.381-2.881,9.076-0.295,12.963c2.586,3.888,6.888,6.278,11.219,8.025c5.438,2.194,11.331,3.619,17.157,2.953
				c7.942-0.908,15.156-5.755,19.782-12.274c3.087-4.35,5.08-9.383,6.147-14.624c0.751-2.067,1.406-4.163,1.87-6.313
				C476.458,147.276,476.553,142.449,474.954,138.099z"/>
			<g>
				<path style="fill:#FFFDFE;" d="M515.745,213.418c-8.268,1.811-16.536,3.622-24.804,5.433c1.628-0.356-1.908-17.379-2.366-19.069
					c-1.76-6.506-4.844-12.046-7.727-18.037c6.341-5.174,15.728,5.21,19.525,9.048C506.823,197.31,512.08,205.012,515.745,213.418z"
					/>
				<path style="fill:none;stroke:#000000;stroke-linecap:round;stroke-linejoin:round;stroke-miterlimit:10;" d="M489.154,181.398
					c8.445,3.153,15.333,10.224,18.265,18.748"/>
			</g>
			<g>
				<g>
					<path style="fill:#FFFDFE;" d="M445.707,182.468c-1.82,3.551-2.445,7.577-2.992,11.53c-4.679,33.777-5.569,67.97-5.357,102.069
						c12.777,0.144,25.553,0.288,38.329,0.432c2.369,0.027,4.963-0.024,6.771-1.554c1.565-1.325,2.155-3.448,2.619-5.446
						c7.153-30.795,3.721-63.048-1.984-94.144c-1.007-5.49-2.249-11.296-6.125-15.314
						C469.307,172.1,451.106,171.934,445.707,182.468z"/>
					<path style="fill:#063965;" d="M454.291,209.356c-3.954,1.538-5.932,6.108-6.133,10.347
						c-0.292,6.169,2.297,12.199,6.006,17.137c3.709,4.939,8.493,8.947,13.232,12.908c0.8,0.669,1.657,1.364,2.689,1.512
						c1.871,0.268,3.453-1.313,4.615-2.805c5.339-6.855,9.183-14.868,11.187-23.322c0.931-3.928,1.307-8.54-1.388-11.546
						c-1.9-2.119-5.104-2.893-7.817-2.035c-2.562,0.81-3.039,2.929-4.955,4.221c-1.746,1.177-2.51-0.178-3.83-1.525
						C464.495,210.78,459.353,207.387,454.291,209.356z"/>
					<path style="fill:none;stroke:#000000;stroke-linecap:round;stroke-linejoin:round;stroke-miterlimit:10;" d="M455.058,186.483
						c1.262,4.996,6.248,8.612,11.396,8.852c5.148,0.239,10.183-2.586,13.203-6.761"/>
				</g>
				<path style="fill:#01B4C1;" d="M495.462,187.263c3.447,5.128,4.336,11.387,5.158,17.919c2.034,16.157,4.069,32.317,5.593,48.531
					c1.529,16.27,2.542,32.588,3.037,48.922c-10.451,2.557-21.295,3.504-32.031,2.796c1.852,0.122,3.947-55.734,3.982-60.838
					c0.079-11.566-0.608-23.118-1.418-34.65c-0.743-10.576-0.033-22.647-5.215-32.223c5.573-0.549,11.328,1.022,15.849,4.327
					C492.539,183.599,494.178,185.353,495.462,187.263z"/>
				<path style="fill:#01B4C1;" d="M455.449,174.087c5.296,21.461,4.245,43.821,1.975,65.738c-2.27,21.918-5.735,43.82-5.173,65.833
					c-13.103-2.422-26.205-4.844-39.307-7.266c3.082-31.059,6.618-62.582,12.179-93.341c1.37-7.578,2.992-15.374,7.601-21.752
					C437.333,176.922,447.392,172.388,455.449,174.087z"/>
				<g>
					<path style="fill:#FFAA73;" d="M455.16,174.054c-0.647,2.38-1.383,4.827-1.043,7.269c0.437,3.137,2.603,5.783,5.083,7.752
						c2.67,2.12,5.905,3.686,9.312,3.779c3.408,0.093,6.966-1.491,8.665-4.446c1.237-2.15,1.395-4.733,1.523-7.21
						c0.542-10.481,0.982-21.494-3.658-30.908c-1.193-2.42-2.779-4.756-5.091-6.147c-2.311-1.391-5.471-1.625-7.622,0.003
						c-3.629,2.748-3.573,9.282-4.021,13.336C457.69,163.077,456.637,168.623,455.16,174.054z"/>
					<path style="fill:#B87B53;" d="M471.024,180.281c0.544,0.663,1.116,1.326,1.851,1.77c0.735,0.443,1.669,0.638,2.461,0.309
						c1.001-0.416,1.513-1.512,1.88-2.532c1.568-4.345,2.164-9.088,1.343-13.633c-0.821-4.546-3.116-8.874-6.665-11.83
						c-2-1.665-4.699-3.043-7.373-2.494c-1.925,0.395-4.355,2.181-4.901,4.179c-0.575,2.106,0.706,4.753,1.404,6.672
						c1.095,3.008,2.431,5.93,3.989,8.726C466.749,174.563,468.761,177.524,471.024,180.281z"/>
				</g>
				<g>
					<path style="fill:none;stroke:#000000;stroke-linecap:round;stroke-linejoin:round;stroke-miterlimit:10;" d="M454.68,173.456
						c0.519,5.973,1.057,12.117,2.463,17.955c1.147,4.767,3.026,9.428,6.074,13.268c1.124,1.416,2.581,2.799,4.386,2.898
						c2.098,0.115,3.861-1.535,5.096-3.235c5.187-7.138,5.596-16.111,6.239-24.566"/>
					<g>
						<path style="fill:#FFD300;" d="M476.603,227.117c-0.262-6.855-0.504-13.769-0.765-20.624
							c-4.68-0.091-9.359-0.182-14.039-0.272c0.144,6.964,0.054,14.154,0.198,21.118
							C466.697,226.237,471.827,226.414,476.603,227.117z"/>
						<path style="fill:#FFFDFE;" d="M466.322,212.07c-0.875,0.259-1.472,1.133-1.608,2.036c-0.136,0.903,0.119,1.823,0.496,2.655
							c0.864,1.91,2.396,3.51,4.266,4.456c1.289-2.016,2.574-4.09,3.148-6.413c0.116-0.468,0.202-0.953,0.135-1.43
							c-0.067-0.477-0.307-0.95-0.719-1.199c-0.638-0.385-1.505-0.123-2.034,0.401c-0.529,0.524-0.798,1.249-1.052,1.949
							c0.128-0.352-0.543-1.544-0.771-1.854C467.776,212.119,466.97,211.878,466.322,212.07z"/>
					</g>
				</g>
			</g>
			<path d="M495.825,115.487c3.071,2.428,6.051,5.282,7.272,9.001c1.062,3.235,0.661,6.813-0.503,10.012s-3.046,6.082-4.982,8.883
				c-0.962,1.392-2.444,2.954-4.048,2.412c-1.169-0.395-1.689-1.716-2.169-2.853c-1.083-2.562-2.679-4.906-4.666-6.852
				c-2.419-2.369-5.438-4.191-7.291-7.025c-1.703-2.603-2.238-5.939-1.435-8.944c0.917-3.43,3.461-6.837,6.831-8.141
				C488.759,110.461,492.846,113.132,495.825,115.487z"/>
			<g>
				<path style="fill:#FFAA73;" d="M456.036,159.118c2.714,6.437,8.224,11.461,14.546,14.434c2.632,1.238,5.553,2.164,8.422,1.685
					c1.964-0.327,3.766-1.294,5.415-2.409c4.793-3.241,8.65-7.95,10.522-13.424c1.57-4.593,1.724-9.54,1.646-14.393
					c-0.085-5.318-0.442-10.707-2.146-15.746c-1.704-5.039-4.895-9.748-9.54-12.34c-5.587-3.117-12.817-2.722-18.331,0.522
					c-10.304,6.062-12.973,19.735-12.694,30.749C453.97,151.929,454.58,155.665,456.036,159.118z"/>
				<path d="M484.48,107.242c-10.895-0.018-21.784,2.745-31.349,7.961c-6.726,3.668-10.292,9.26-8.343,17.125
					c0.601,2.423,1.793,4.61,3.667,6.088c5.737,4.524,15.865-0.049,21.701-2.51c7.021-2.961,13.496-7.223,18.954-12.543
					c1.914-1.866,3.751-3.932,4.633-6.455c0.881-2.524,0.612-5.607-1.283-7.493c-1.852-1.843-4.71-2.137-7.322-2.168
					C484.919,107.244,484.699,107.243,484.48,107.242z"/>
				<g>
					<path style="fill:#FFAA73;" d="M451.509,137.801c-1.564-0.616-3.388-0.782-4.896-0.04c-1.551,0.762-2.552,2.394-2.868,4.093
						c-0.316,1.698-0.023,3.458,0.486,5.109c1.208,3.922,3.655,7.453,6.905,9.959c1.525,1.176,3.641,2.143,5.307,1.176
						c1.233-0.716,1.726-2.24,1.934-3.65c0.51-3.444-0.428-6.518-1.161-9.825C456.543,141.595,454.417,138.947,451.509,137.801z"/>
					
						<path style="fill:none;stroke:#000000;stroke-width:0.8109;stroke-linecap:round;stroke-linejoin:round;stroke-miterlimit:10;" d="
						M453.431,145.066c0.154-1.235-1.025-2.389-2.27-2.41c-1.244-0.021-2.381,0.907-2.836,2.066
						c-0.455,1.159-0.312,2.486,0.144,3.644c0.877,2.227,2.931,3.952,5.276,4.431"/>
				</g>
				<g>
					<g>
						
							<path style="fill:none;stroke:#000000;stroke-width:0.9399;stroke-linecap:round;stroke-linejoin:round;stroke-miterlimit:10;" d="
							M466.715,139.93c1.312-1.605,3.387-2.557,5.459-2.505c2.073,0.052,4.097,1.107,5.327,2.776"/>
						<path d="M473.504,144.612c0.128,0.223,0.297,0.444,0.54,0.53c0.282,0.1,0.608-0.012,0.823-0.22
							c0.215-0.208,0.334-0.497,0.405-0.787c0.2-0.813-0.052-3.278-1.421-2.877C472.607,141.624,473.056,143.83,473.504,144.612z"/>
					</g>
					<g>
						
							<path style="fill:none;stroke:#000000;stroke-width:0.9399;stroke-linecap:round;stroke-linejoin:round;stroke-miterlimit:10;" d="
							M485.149,139.748c0.641-1.521,2.077-2.681,3.699-2.988c1.622-0.307,3.382,0.248,4.535,1.43"/>
						<path d="M490.016,143.719c0.085,0.514,0.277,1.07,0.737,1.316c0.254,0.135,0.589,0.145,0.814-0.033
							c0.182-0.145,0.263-0.38,0.321-0.605c0.126-0.491,0.183-1,0.171-1.507c-0.009-0.371-0.059-0.751-0.241-1.074
							c-0.346-0.613-1.221-0.783-1.684-0.186C489.746,142.131,489.924,143.157,490.016,143.719z"/>
					</g>
					
						<path style="fill:none;stroke:#000000;stroke-width:0.9399;stroke-linecap:round;stroke-linejoin:round;stroke-miterlimit:10;" d="
						M482.541,144.014c-0.266,2.632,0.508,5.356,2.119,7.454c0.58,0.756,1.311,1.649,0.985,2.544c-0.207,0.568-0.807,0.917-1.405,1
						c-0.599,0.083-1.203-0.051-1.793-0.185"/>
					<path style="fill:#FFFDFE;" d="M468.531,156.86c0.165,3.669,1.823,7.326,4.734,9.565c2.911,2.239,7.086,2.873,10.382,1.254
						c2.979-1.463,5.776-5.705,4.482-9.108c-1.348,0.222-2.531,0.635-3.918,0.608c-1.716-0.033-3.434-0.036-5.146-0.172
						c-1.791-0.142-3.573-0.393-5.333-0.751C473.203,158.148,468.551,157.28,468.531,156.86z"/>
					<path style="fill:#FF7673;" d="M462.89,152.695c-0.013,1.108,0.788,2.176,1.856,2.473c1.068,0.297,2.305-0.204,2.866-1.159
						c0.561-0.956,0.395-2.28-0.385-3.067C465.685,149.383,462.915,150.514,462.89,152.695z"/>
					<path style="fill:#FF7673;" d="M490.156,155.107c-0.013,1.108,0.788,2.176,1.856,2.472c1.068,0.297,2.305-0.203,2.866-1.159
						s0.395-2.28-0.385-3.068C492.951,151.795,490.182,152.926,490.156,155.107z"/>
				</g>
				<path d="M456.119,152.617c0.044,0.365,0.094,0.746,0.301,1.05c0.207,0.304,0.622,0.501,0.953,0.341
					c0.258-0.125,0.384-0.415,0.487-0.682c1.97-5.122,2.823-10.671,2.481-16.149c-0.052-0.836-0.136-1.689-0.479-2.454
					c-0.993-2.214-3.374-1.935-4.583-0.109c-0.899,1.357-1.294,2.877-1.052,4.476C454.906,143.594,455.569,148.086,456.119,152.617z
					"/>
			</g>
		</g>
		<g>
			<g>
				<g>
					<polygon style="fill:#F7931E;" points="621.323,207.012 611.466,195.714 550.037,193.714 546.037,209.571 577.144,209.571 
											"/>
					<polygon style="fill:#F7931E;" points="577.144,209.571 574.572,289.737 484.826,281.857 490.34,204.143 					"/>
					<polygon style="fill:#F7931E;" points="577.144,209.571 621.323,207.012 621.323,279.65 574.572,289.737 					"/>
					<polygon style="fill:#F7931E;" points="577.144,209.571 595.894,193.071 513.03,187.976 490.34,204.143 					"/>
				</g>
				<g>
					<polyline style="fill:none;stroke:#000000;stroke-linecap:round;stroke-linejoin:round;stroke-miterlimit:10;" points="
						490.34,204.143 577.144,209.571 621.323,207.012 581.27,205.94 					"/>
					<polyline style="fill:none;stroke:#000000;stroke-linecap:round;stroke-linejoin:round;stroke-miterlimit:10;" points="
						595.894,193.071 577.144,209.571 574.572,289.737 					"/>
				</g>
			</g>
			<g>
				<circle style="fill:#FFFDFE;" cx="531.842" cy="245.734" r="29.757"/>
				<path style="fill:#063965;" d="M543.13,262.989c0.141-7.668-0.646-15.283-0.665-22.93c0.911,2.37,1.822,4.74,2.733,7.109
					c2.988-2.452,5.976-4.904,8.964-7.356c-3.176-2.936-3.992-7.779-7.125-10.76c-2.375-2.259-5.983-3.132-9.128-2.208
					c0.391,3.147-1.74,6.421-4.777,7.337c-4.764,1.436-10.212-3.375-9.406-8.273c-2.232-0.343-4.955-0.306-6.891,0.855
					c-0.905,0.543-1.608,1.361-2.277,2.178c-2.487,3.037-4.746,6.262-6.751,9.637c2.604,1.965,5.39,3.687,8.312,5.138
					c1.071-0.804,2.313-1.767,3.384-2.571c-0.752,7.016-1.821,14.828-2.573,21.844C525.465,261.633,534.773,260.788,543.13,262.989z
					"/>
			</g>
		</g>
		<g>
			<g>
				<polygon style="fill:#9D5C32;" points="669.472,292.286 642.374,450 626.358,450 627.901,292.286 				"/>
				<g>
					<polygon points="625.823,292.286 622.578,365.145 658.698,366.714 672.758,292.286 					"/>
					<path style="fill:none;stroke:#FFFFFF;stroke-linecap:round;stroke-linejoin:round;stroke-miterlimit:10;" d="M626.336,302.157
						c3.729-1.601,6.868-4.54,8.709-8.157"/>
					<path style="fill:none;stroke:#FFFFFF;stroke-linecap:round;stroke-linejoin:round;stroke-miterlimit:10;" d="M626.336,302.157
						c3.729-1.601,6.868-4.54,8.709-8.157"/>
				</g>
				<g>
					<path style="fill:#063965;" d="M630.742,445.612c-1.554-1.012-2.982-2.48-4.832-2.598c-2.799-0.177-4.662,2.688-6.297,4.967
						c-3.924,5.469-9.995,9.354-16.605,10.625c-1.402,0.27-2.859,0.437-4.119,1.108c-1.26,0.671-2.3,2.012-2.104,3.427
						c0.166,1.2,1.183,2.143,2.315,2.575c1.132,0.432,2.373,0.448,3.584,0.458c13.565,0.115,27.131,0.231,40.696,0.346
						c1.431,0.012,3.018-0.034,4.054-1.02c1-0.951,1.156-2.471,1.186-3.851c0.063-2.939-0.123-16.685-4.082-17.236
						c-1.602-0.223-4.74,2.483-6.74,2.726C635.362,447.433,632.811,446.959,630.742,445.612z"/>
					<path style="fill:none;stroke:#000000;stroke-linecap:round;stroke-linejoin:round;stroke-miterlimit:10;" d="M597.769,460.473
						c16.973,1.946,34.042,3.053,51.124,3.318"/>
					<g>
						<path style="fill:none;stroke:#000000;stroke-linecap:round;stroke-linejoin:round;stroke-miterlimit:10;" d="
							M615.922,440.723c-0.622-0.322-1.3-0.617-1.997-0.548c-1.309,0.131-2.192,1.62-1.966,2.916
							c0.227,1.296,1.306,2.315,2.521,2.82c1.215,0.505,2.56,0.58,3.875,0.621c1.991,0.061,3.995,0.059,5.955,0.411
							c1.96,0.352,3.904,1.089,5.363,2.445c0.6,0.557,1.095,1.575,0.481,2.117c-0.479,0.424-1.227,0.161-1.791-0.14
							c-2.474-1.32-4.359-2.749-5.855-5.038C620.953,443.952,618.417,442.015,615.922,440.723z"/>
						<path style="fill:none;stroke:#000000;stroke-linecap:round;stroke-linejoin:round;stroke-miterlimit:10;" d="
							M609.501,454.198c2.593,0.109,5.119,1.358,6.78,3.353"/>
						<path style="fill:none;stroke:#000000;stroke-linecap:round;stroke-linejoin:round;stroke-miterlimit:10;" d="
							M612.891,452.359c2.741,0.371,5.234,2.228,6.373,4.749"/>
						<path style="fill:none;stroke:#000000;stroke-linecap:round;stroke-linejoin:round;stroke-miterlimit:10;" d="
							M616.908,449.126c2.683,1.099,4.924,3.24,6.144,5.87"/>
					</g>
				</g>
			</g>
			<g>
				<g>
					<polygon style="fill:#9D5C32;" points="701.984,292.286 709.698,448.286 693.412,448.286 658.698,292.286 					"/>
					<g>
						<polygon points="655.464,296.503 671.044,366.714 708.187,366.714 701.984,292.286 						"/>
						<path style="fill:none;stroke:#FFFFFF;stroke-linecap:round;stroke-linejoin:round;stroke-miterlimit:10;" d="
							M684.198,296.424c0.073,2.965,1.161,5.896,3.04,8.191c1.88,2.295,4.539,3.939,7.431,4.594"/>
						<path style="fill:none;stroke:#FFFFFF;stroke-linecap:round;stroke-linejoin:round;stroke-miterlimit:10;" d="
							M693.857,298.489c1.466,22.507,2.933,45.014,4.399,67.521"/>
						<path style="fill:none;stroke:#FFFFFF;stroke-linecap:round;stroke-linejoin:round;stroke-miterlimit:10;" d="
							M664.492,335.958c-3.561-13.688-6.232-27.607-7.99-41.64"/>
					</g>
				</g>
				<g>
					<path style="fill:#01B4C1;" d="M695.599,446.508c-1.554-1.012-2.982-2.48-4.832-2.598c-2.799-0.177-4.662,2.688-6.297,4.967
						c-3.924,5.469-9.995,9.354-16.606,10.625c-1.402,0.27-2.858,0.437-4.119,1.108s-2.3,2.012-2.104,3.427
						c0.166,1.2,1.184,2.143,2.315,2.575c1.132,0.432,2.373,0.448,3.585,0.458c13.565,0.115,27.131,0.231,40.696,0.346
						c1.431,0.012,3.018-0.034,4.054-1.02c1-0.952,1.156-2.471,1.185-3.851c0.063-2.939-0.123-16.685-4.082-17.236
						c-1.603-0.223-4.74,2.483-6.741,2.726C700.219,448.329,697.668,447.855,695.599,446.508z"/>
					<path style="fill:none;stroke:#000000;stroke-linecap:round;stroke-linejoin:round;stroke-miterlimit:10;" d="M662.642,461.989
						c16.5,2.287,33.273,2.602,49.848,0.937"/>
					<g>
						<path style="fill:none;stroke:#000000;stroke-linecap:round;stroke-linejoin:round;stroke-miterlimit:10;" d="
							M684.012,445.511c-1.108-0.965-2.465-1.798-3.933-1.737c-1.467,0.061-2.938,1.359-2.704,2.809
							c0.208,1.291,1.544,2.057,2.78,2.487c1.65,0.574,3.389,0.889,5.135,0.929c1.797,0.041,3.609-0.206,5.387,0.059
							s3.606,1.179,4.316,2.831c0.322,0.747,0.355,1.698-0.191,2.301c-0.844,0.933-2.402,0.479-3.437-0.236
							C687.956,452.598,687.125,448.222,684.012,445.511z"/>
						<path style="fill:none;stroke:#000000;stroke-linecap:round;stroke-linejoin:round;stroke-miterlimit:10;" d="
							M675.329,455.468c2.083,0.667,4.035,1.741,5.714,3.143"/>
						<path style="fill:none;stroke:#000000;stroke-linecap:round;stroke-linejoin:round;stroke-miterlimit:10;" d="
							M679.761,453.436c1.579,0.155,3.063,1.085,3.891,2.438"/>
						<path style="fill:none;stroke:#000000;stroke-linecap:round;stroke-linejoin:round;stroke-miterlimit:10;" d="M681.896,451.05
							c1.724,0.793,3.141,2.234,3.903,3.971"/>
					</g>
				</g>
			</g>
			<g>
				<path style="fill:#063965;" d="M657.894,178.296c-6.848,1.541-13.81,4.08-18.531,9.274c-6.036,6.642-7.261,16.22-8.206,25.146
					c-2.86,27.029-5.72,54.058-8.579,81.086c27.272,2.003,54.774,6.971,81.784,2.701c-0.009-17.341-0.018-40.808-0.836-58.13
					c-0.345-7.303-0.844-14.608-1.847-21.853c-0.958-6.917-1.23-14.243-3.203-20.96c-1.373-4.672-3.807-9.166-7.624-12.19
					C681.686,176.109,668.767,175.849,657.894,178.296z"/>
				<path style="fill:none;stroke:#000000;stroke-linecap:round;stroke-linejoin:round;stroke-miterlimit:10;" d="M647.599,181.698
					c0.02,3.378,1.988,6.586,4.773,8.499c2.784,1.913,6.289,2.612,9.658,2.361c4.013-0.299,7.917-1.911,10.97-4.531
					c3.054-2.62,5.241-6.233,6.147-10.153"/>
				<path style="fill:#9D5C32;" d="M638.449,213.134c-2.207,3.494-2.496,8.077-0.922,11.898c1.575,3.821,4.922,6.826,8.832,8.168
					c1.978,0.679,4.156,0.948,6.166,0.369c2.559-0.738,4.574-2.772,5.934-5.061c1.36-2.289,2.166-4.855,3.101-7.349
					c0.935-2.493,2.045-4.989,3.876-6.922c1.421-1.5,3.223-2.6,4.64-4.104c1.417-1.504,2.444-3.66,1.793-5.621
					c-0.646-1.946-2.719-3.054-4.719-3.509c-1.882-0.428-3.897-0.442-5.701,0.244c-2.44,0.928-4.227,2.998-6.279,4.611
					c-1.396,1.097-3.081,1.99-4.879,2.122c-1.337,0.098-2.566-0.408-3.909-0.207C643.177,208.252,640.159,210.427,638.449,213.134z"
					/>
			</g>
			<g>
				<path style="fill:#9D5C32;" d="M674.713,172.671c0.333,2.444,0.746,4.965,0.092,7.343c-0.84,3.054-3.33,5.397-6.045,7.028
					c-2.922,1.756-6.333,2.889-9.723,2.54c-3.391-0.349-6.714-2.381-8.016-5.531c-0.948-2.293-0.77-4.874-0.576-7.347
					c0.821-10.463,1.812-21.44,7.633-30.174c1.496-2.245,3.372-4.356,5.844-5.435c2.472-1.079,5.636-0.902,7.557,0.991
					c3.242,3.195,2.34,9.666,2.259,13.745C673.626,161.458,673.952,167.094,674.713,172.671z"/>
				<path style="fill:#9D5C32;" d="M650.659,187.278c-0.195,0.578-0.566,1.079-0.829,1.63c-0.263,0.551-0.411,1.215-0.142,1.763
					c0.242,0.493,0.781,0.786,1.323,0.874c0.542,0.088,1.095,0.003,1.638-0.082c5.124-0.806,10.317-1.631,15.058-3.736
					c0.352-0.156,0.708-0.324,0.984-0.593c0.276-0.269,0.46-0.661,0.386-1.039c-0.105-0.538-0.697-0.864-1.246-0.868
					c-0.548-0.004-1.066,0.229-1.575,0.433c-2.854,1.142-6.089,1.44-9.032,0.551c-1.943-0.587-3.81-1.738-5.248-3.171
					c-0.821-0.818-1.488-1.831-1.706-2.97c-0.06,1.245-0.191,2.392,0.109,3.603C650.669,184.838,651.06,186.092,650.659,187.278z"/>
				<path style="fill:#4F2E19;" d="M652.302,181.515c2.058,1.53,5.018,1.379,7.293,0.195c2.274-1.185,3.972-3.233,5.405-5.359
					c2.982-4.427,5.083-9.409,6.528-14.548c0.511-1.816,0.916-3.869-0.024-5.505c-0.693-1.206-2.035-1.95-3.412-2.145
					c-1.377-0.194-2.785,0.107-4.081,0.612c-3.853,1.499-6.828,4.735-8.822,8.357c-1.844,3.348-3.069,7.11-3.979,10.812
					C650.553,176.603,649.658,179.548,652.302,181.515z"/>
			</g>
			<g>
				<g>
					<path style="fill:#9D5C32;" d="M610.379,236.828c-0.698-0.502-1.417-1.014-2.25-1.224c-0.833-0.21-1.818-0.05-2.363,0.614
						c-0.488,0.595-0.521,1.436-0.457,2.203c0.212,2.566,1.262,5.057,2.952,7c-3.071-0.45-6.197-0.769-9.272-0.355
						c-3.076,0.414-6.128,1.622-8.285,3.852c-1.305,1.35-2.277,3.178-2.067,5.044c0.259,2.304,2.202,4.045,4.198,5.226
						c6.577,3.891,14.656,4.066,22.286,3.643c2.935-0.163,5.932-0.414,8.621-1.602c2.689-1.188,5.054-3.49,5.556-6.387
						c0.776-4.477-2.882-7.298-6.32-9.224C618.539,243.132,614.505,239.796,610.379,236.828z"/>
					<g>
						<path style="fill:none;stroke:#000000;stroke-linecap:round;stroke-linejoin:round;stroke-miterlimit:10;" d="
							M595.038,246.392c3.419,0.831,6.898,1.41,10.402,1.731"/>
						<path style="fill:none;stroke:#000000;stroke-linecap:round;stroke-linejoin:round;stroke-miterlimit:10;" d="M590.323,250.13
							c3.711,1.159,7.594,1.768,11.482,1.8"/>
						<path style="fill:none;stroke:#000000;stroke-linecap:round;stroke-linejoin:round;stroke-miterlimit:10;" d="M589.248,254.19
							c3.828,1.726,7.955,2.786,12.141,3.119"/>
					</g>
					<path style="fill:none;stroke:#000000;stroke-linecap:round;stroke-linejoin:round;stroke-miterlimit:10;" d="M620.85,245.734
						c-2.089-2.765-4.767-5.083-7.802-6.755"/>
				</g>
				<g>
					<path style="fill:#9D5C32;" d="M699.113,201.673c0.174,1.557,0.25,3.124,0.232,4.686c-0.106,8.976-2.997,17.376-7.758,24.875
						c-5.415,8.529-12.575,16.118-21.44,20.962c-14.379,7.858-31.6,7.832-47.985,7.609c-2.181-0.03-4.418-0.07-6.449-0.866
						c-2.031-0.796-3.845-2.522-4.101-4.688c-0.238-2.01,0.916-3.987,2.496-5.251c1.581-1.265,3.541-1.942,5.472-2.55
						c11.554-3.637,23.675-5.643,34.693-10.674c11.018-5.031,21.203-13.951,23.621-25.82c0.778-3.819,0.71-7.732,0.641-11.609
						c-0.072-4.058-1.416-8.718,2.505-11.462c2.095-1.467,4.784-1.83,7.337-1.68c1.737,0.102,3.523,0.447,4.938,1.46
						c2.105,1.506,2.872,4.023,3.697,6.344C698.019,195.84,698.778,198.68,699.113,201.673z"/>
					<path style="fill:none;stroke:#000000;stroke-linecap:round;stroke-linejoin:round;stroke-miterlimit:10;" d="M627.901,243.859
						c-2.42,0.423-4.81,1.014-7.148,1.768"/>
					<path style="fill:none;stroke:#000000;stroke-linecap:round;stroke-linejoin:round;stroke-miterlimit:10;" d="M661.366,247.067
						c1.688-2.361,4.635-3.762,7.531-3.58"/>
				</g>
				<g>
					<path style="fill:#063965;" d="M700.498,199.474c0.876,3.216,1.212,6.927,1.324,10.27c0.033,0.99-0.003,10.54-0.897,10.607
						c-8.355,0.625-16.811-0.127-24.925-2.216c-0.545-0.14-1.133-0.317-1.456-0.778c-0.366-0.524-0.266-1.229-0.155-1.859
						c1.038-5.888,1.67-11.848,1.889-17.823c0.132-3.598,0.854-6.838,3.604-9.381c1.955-1.808,4.523-2.906,7.167-3.226
						c1.838-0.222,3.765-0.067,5.423,0.756c2.237,1.111,3.468,3.418,4.653,5.501C698.582,193.887,699.724,196.629,700.498,199.474z"
						/>
					<path style="fill:#9D5C32;" d="M681.189,188.1c2.396-1.66,5.323-2.43,8.232-2.612c1.62-0.102,3.475,0.077,4.471,1.358
						c-0.628-1.495-2.076-2.54-3.635-2.984c-1.56-0.444-3.225-0.352-4.823-0.077c-2.987,0.513-6.017,1.776-7.777,4.242
						c-1.787,2.504-2.047,5.857-2.08,8.838c0.262-0.759,0.684-1.398,1.035-2.109c0.389-0.787,0.557-1.659,0.939-2.453
						C678.361,190.615,679.653,189.165,681.189,188.1z"/>
					<g>
						<path style="fill:none;stroke:#000000;stroke-linecap:round;stroke-linejoin:round;stroke-miterlimit:10;" d="
							M676.404,196.287c0.334,7.222-0.362,14.491-2.058,21.519c0.235,0.034,0.47,0.068,0.705,0.102"/>
						<path style="fill:none;stroke:#000000;stroke-linecap:round;stroke-linejoin:round;stroke-miterlimit:10;" d="
							M697.011,220.935c0.769-0.498,1.926,0.215,2.665-0.326c0.39-0.285,0.498-0.811,0.574-1.288
							c0.622-3.906,1.043-7.844,1.261-11.792"/>
						<path style="fill:none;stroke:#000000;stroke-linecap:round;stroke-linejoin:round;stroke-miterlimit:10;" d="
							M675.187,213.712c8.402,1.834,16.968,2.917,25.562,3.233"/>
					</g>
				</g>
			</g>
			<g>
				<path style="fill:#9D5C32;" d="M665.643,116.825c-3.135-1.149-6.555-1.291-9.885-1.052c-5.848,0.42-11.905,2.156-15.957,6.394
					c-3.388,3.543-4.99,8.412-6.061,13.196c-1.847,8.25-2.414,16.828-1.19,25.193c0.542,3.708,1.486,7.479,3.728,10.481
					c3.533,4.731,9.962,6.785,15.799,5.892c5.837-0.893,11.048-4.4,14.904-8.872c3.855-4.472,6.481-9.869,8.659-15.357
					c2.187-5.511,4.042-11.565,3.167-17.555c-0.679-4.647-3.147-10.054-6.299-13.564
					C670.628,119.487,668.294,117.796,665.643,116.825z"/>
				<path d="M653.931,133.871c0.581-0.025,1.16-0.051,1.736-0.078c4.425-0.207,8.838-0.662,13.212-1.362
					c0.178,4.587,1.459,9.128,3.704,13.133c0.166,0.296,2.652-0.717,2.935-0.846c0.97-0.442,1.873-1.029,2.677-1.729
					c1.624-1.412,2.792-3.25,3.376-5.319c1.295-4.581,0.134-9.455-2.103-13.547c-0.882-1.613-1.941-3.133-3.154-4.514
					c-2.984-3.396-7.945-5.404-12.229-6.477c-5.807-1.454-12.103-1.366-17.63,0.934c-5.527,2.3-10.181,6.952-11.836,12.705
					c-0.385,1.339-0.597,2.829,0.009,4.083c0.69,1.429,2.028,1.43,3.363,1.766c1.62,0.408,3.131,0.917,4.811,1.095
					C646.445,134.103,650.237,134.027,653.931,133.871z"/>
				<g>
					<path style="fill:#9D5C32;" d="M679.903,139.384c0.871,0.32,1.547,1.028,2.064,1.799c1.722,2.568,1.926,5.942,1.11,8.924
						c-0.816,2.982-2.552,5.631-4.481,8.048c-0.598,0.75-1.231,1.495-2.039,2.012c-0.808,0.518-1.826,0.785-2.742,0.502
						c-1.574-0.486-2.275-2.324-2.457-3.961c-0.49-4.417,1.526-7.902,2.429-12.044C674.372,141.983,676.42,138.104,679.903,139.384z
						"/>
					<path style="fill:none;stroke:#000000;stroke-linecap:round;stroke-linejoin:round;stroke-miterlimit:10;" d="M676.656,147.026
						c0.108-0.372,0.221-0.755,0.463-1.058c0.242-0.303,0.646-0.51,1.019-0.406c0.588,0.165,0.737,0.919,0.755,1.529
						c0.063,2.08-0.162,4.259-1.285,6.01c-0.422,0.658-1.037,1.278-1.815,1.352"/>
				</g>
				<g>
					<g>
						<path style="fill:none;stroke:#000000;stroke-linecap:round;stroke-linejoin:round;stroke-miterlimit:10;" d="
							M650.383,141.627c1.564-1.691,3.909-2.628,6.207-2.479c2.298,0.149,4.504,1.38,5.837,3.258"/>
						<path d="M653.105,146.824c0.032,0.242,0.085,0.487,0.211,0.697c0.126,0.209,0.336,0.38,0.579,0.407
							c0.444,0.049,0.796-0.366,0.99-0.768c0.323-0.671,0.456-1.432,0.379-2.172c-0.08-0.77-0.773-1.907-1.546-1.064
							C653.088,144.611,652.992,145.955,653.105,146.824z"/>
					</g>
					<g>
						<path d="M635.132,146.824c0.032,0.242,0.085,0.487,0.211,0.697c0.126,0.209,0.336,0.38,0.579,0.407
							c0.444,0.049,0.797-0.366,0.99-0.768c0.323-0.671,0.456-1.432,0.379-2.172c-0.08-0.77-0.773-1.907-1.546-1.064
							C635.115,144.611,635.018,145.955,635.132,146.824z"/>
						<path style="fill:none;stroke:#000000;stroke-linecap:round;stroke-linejoin:round;stroke-miterlimit:10;" d="
							M634.694,139.714c1.372-0.821,3.103-1.017,4.624-0.524c1.521,0.493,2.808,1.665,3.439,3.135"/>
					</g>
					<path style="fill:none;stroke:#000000;stroke-linecap:round;stroke-linejoin:round;stroke-miterlimit:10;" d="M645.89,145.822
						c-0.019,2.367-1.223,4.695-3.143,6.079c-0.698,0.503-1.554,0.985-1.727,1.829c-0.177,0.863,0.509,1.713,1.33,2.032
						c0.821,0.319,1.735,0.238,2.611,0.153"/>
					<path style="fill:#FFFDFE;" d="M653.297,160.829c-4.006,1.909-8.798,2.097-12.941,0.508c0.197,2.367,1.634,4.576,3.685,5.775
						c2.051,1.199,4.773,1.223,6.774-0.057S653.852,163.139,653.297,160.829z"/>
					<path style="fill:#9D3132;" d="M663.186,158.319c0,1.873-1.518,3.391-3.391,3.391c-1.872,0-3.391-1.518-3.391-3.391
						c0-1.873,1.518-3.391,3.391-3.391C661.668,154.929,663.186,156.447,663.186,158.319z"/>
					<path style="fill:#9D3132;" d="M638.481,158.819c0,1.873-1.518,3.391-3.391,3.391c-1.873,0-3.391-1.518-3.391-3.391
						c0-1.873,1.518-3.391,3.391-3.391C636.963,155.429,638.481,156.947,638.481,158.819z"/>
				</g>
			</g>
		</g>
		<g>
			<g>
				<path style="fill:#FFAA73;" d="M509.213,236.828c0.698-0.502,1.417-1.014,2.25-1.224c0.833-0.21,1.818-0.05,2.363,0.614
					c0.488,0.595,0.521,1.436,0.457,2.203c-0.212,2.566-1.262,5.057-2.952,7c3.071-0.45,6.196-0.769,9.272-0.355
					c3.076,0.414,6.127,1.622,8.285,3.852c1.305,1.35,2.277,3.178,2.067,5.044c-0.259,2.304-2.202,4.045-4.198,5.226
					c-6.577,3.891-14.655,4.066-22.286,3.643c-2.935-0.163-5.932-0.414-8.621-1.602s-5.054-3.49-5.556-6.387
					c-0.776-4.477,2.882-7.298,6.32-9.224C501.053,243.132,505.087,239.796,509.213,236.828z"/>
				<path style="fill:none;stroke:#000000;stroke-linecap:round;stroke-linejoin:round;stroke-miterlimit:10;" d="M524.554,246.392
					c-3.419,0.831-6.898,1.41-10.402,1.731"/>
				<path style="fill:none;stroke:#000000;stroke-linecap:round;stroke-linejoin:round;stroke-miterlimit:10;" d="M529.269,250.13
					c-3.711,1.159-7.594,1.768-11.482,1.8"/>
				<path style="fill:none;stroke:#000000;stroke-linecap:round;stroke-linejoin:round;stroke-miterlimit:10;" d="M530.344,254.19
					c-3.828,1.726-7.955,2.786-12.141,3.119"/>
			</g>
			<g>
				<path style="fill:#FFAA73;" d="M420.479,201.673c-0.174,1.557-0.25,3.124-0.232,4.686c0.106,8.976,2.997,17.376,7.758,24.875
					c5.415,8.529,12.575,16.118,21.44,20.962c14.379,7.858,31.6,7.832,47.985,7.609c2.181-0.03,4.418-0.07,6.449-0.866
					c2.031-0.796,3.845-2.522,4.101-4.688c0.238-2.01-0.916-3.987-2.496-5.251c-1.581-1.265-3.541-1.942-5.472-2.55
					c-11.554-3.637-23.675-5.643-34.693-10.674c-11.018-5.031-21.203-13.951-23.621-25.82c-0.778-3.819-0.71-7.732-0.641-11.609
					c0.062-3.476,0.623-7.387-0.031-10.808c-0.446-2.335-1.748-4.63-3.883-5.675c-2.054-1.005-4.579-0.687-6.589,0.402
					c-2.01,1.09-3.568,2.862-4.853,4.753C422.755,191.356,421.064,196.452,420.479,201.673z"/>
				<path style="fill:none;stroke:#000000;stroke-linecap:round;stroke-linejoin:round;stroke-miterlimit:10;" d="M447.679,241.638
					c3.148,0.639,6.059,2.386,8.104,4.864c0.32,0.387,0.569,1.07,0.122,1.3"/>
			</g>
			<g>
				<path style="fill:#FFFDFE;" d="M420.003,198.077c-1.738,6.38-1.48,13.288,0.728,19.521c7.24-1.471,14.389-3.388,21.393-5.736
					c-0.048-7.122-0.096-14.244-0.144-21.366c-0.017-2.53-0.08-5.218-1.469-7.333c-2.907-4.424-8.623-3.008-11.807,0.113
					C424.571,187.33,421.525,192.489,420.003,198.077z"/>
				<path style="fill:none;stroke:#000000;stroke-linecap:round;stroke-linejoin:round;stroke-miterlimit:10;" d="M419.369,213.716
					c7.692-2.499,15.383-4.997,23.075-7.496"/>
				<path style="fill:none;stroke:#000000;stroke-linecap:round;stroke-linejoin:round;stroke-miterlimit:10;" d="M434.859,180.154
					c-4.962,0.941-9.279,4.296-11.999,8.551c-2.72,4.255-3.948,9.338-4.174,14.383c-0.226,5.045,0.505,10.085,1.452,15.045
					c0.395-0.08,0.789-0.16,1.184-0.24"/>
			</g>
		</g>
	</g>
</g>
</svg>
